M48
; DRILL file {KiCad 7.0.9} date Wed Nov 22 04:12:58 2023
; FORMAT={-:-/ absolute / metric / decimal}
; #@! TF.CreationDate,2023-11-22T04:12:58+01:00
; #@! TF.GenerationSoftware,Kicad,Pcbnew,7.0.9
; #@! TF.FileFunction,Plated,1,2,PTH
FMAT,2
METRIC
; #@! TA.AperFunction,Plated,PTH,ViaDrill
T1C0.400
; #@! TA.AperFunction,Plated,PTH,ComponentDrill
T2C0.600
; #@! TA.AperFunction,Plated,PTH,ComponentDrill
T3C0.800
; #@! TA.AperFunction,Plated,PTH,ComponentDrill
T4C1.000
%
G90
G05
T1
X74.0Y-64.0
X74.0Y-109.0
X77.0Y-58.5
X79.0Y-49.0
X79.0Y-52.5
X79.0Y-64.0
X79.0Y-109.0
X81.5Y-58.5
X86.0Y-108.5
X86.0Y-117.0
X86.5Y-112.5
X90.5Y-54.5
X93.0Y-49.0
X93.0Y-52.5
X95.5Y-59.5
X98.0Y-58.0
X99.0Y-63.5
X99.0Y-68.5
X101.0Y-73.0
X102.5Y-82.0
X102.5Y-85.0
X103.0Y-63.5
X103.0Y-68.5
X103.0Y-79.0
X103.0Y-89.0
X103.0Y-101.0
X106.0Y-73.0
X106.0Y-108.5
X106.0Y-112.5
X106.0Y-117.0
X107.0Y-79.0
X107.0Y-84.0
X107.0Y-91.0
X107.0Y-101.0
X109.0Y-95.0
X109.0Y-109.5
X110.0Y-75.0
X113.0Y-116.0
X113.5Y-48.5
X113.5Y-52.5
X114.0Y-84.0
X114.0Y-88.0
X114.0Y-92.0
X115.5Y-109.5
X116.0Y-95.0
X116.0Y-108.5
X116.5Y-111.5
X117.0Y-68.0
X117.0Y-73.0
X119.0Y-116.0
X122.0Y-92.0
X123.0Y-90.0
X125.0Y-68.0
X125.0Y-73.0
X125.0Y-83.0
X125.0Y-88.0
X125.0Y-108.5
X125.0Y-111.5
X125.0Y-116.0
X126.0Y-95.0
X130.0Y-83.0
X130.0Y-88.0
X131.0Y-76.0
X131.0Y-92.0
X134.0Y-94.0
X135.0Y-108.5
X135.0Y-111.5
X135.0Y-116.0
X136.0Y-68.0
X136.0Y-73.0
X136.0Y-76.0
X136.0Y-83.0
X136.0Y-88.0
X138.0Y-90.0
X140.0Y-79.0
X141.0Y-68.0
X141.0Y-73.0
X141.0Y-76.0
X141.0Y-108.5
X141.0Y-111.0
X142.5Y-49.0
X142.5Y-52.5
X144.0Y-84.0
X144.0Y-111.0
X144.0Y-116.0
X145.0Y-115.0
X147.0Y-59.0
X149.0Y-111.0
X152.0Y-69.0
X152.0Y-97.0
X153.0Y-59.0
X155.5Y-69.0
X155.5Y-97.0
X158.0Y-69.0
X158.0Y-97.0
T3
X110.2Y-77.375
X110.2Y-79.915
X110.2Y-82.455
X110.2Y-84.995
X110.2Y-87.535
X110.2Y-90.075
X110.2Y-92.615
X117.82Y-77.375
X117.82Y-79.915
X117.82Y-82.455
X117.82Y-84.995
X117.82Y-87.535
X117.82Y-90.075
X117.82Y-92.615
T4
X97.5Y-76.42
X97.5Y-78.96
X97.5Y-81.5
X97.5Y-84.04
X97.5Y-86.58
X97.5Y-89.12
X97.5Y-91.66
X144.0Y-75.0
X144.0Y-77.54
X144.0Y-80.08
X146.54Y-75.0
X146.54Y-77.54
X146.54Y-80.08
T2
X109.68Y-124.37G85X109.68Y-123.27
G05
X109.68Y-128.39G85X109.68Y-127.59
G05
X118.32Y-124.37G85X118.32Y-123.27
G05
X118.32Y-128.39G85X118.32Y-127.59
G05
T0
M30
