%TF.GenerationSoftware,KiCad,Pcbnew,7.0.9*%
%TF.CreationDate,2023-11-22T04:12:16+01:00*%
%TF.ProjectId,Co2-Sensor,436f322d-5365-46e7-936f-722e6b696361,rev?*%
%TF.SameCoordinates,Original*%
%TF.FileFunction,Copper,L2,Bot*%
%TF.FilePolarity,Positive*%
%FSLAX46Y46*%
G04 Gerber Fmt 4.6, Leading zero omitted, Abs format (unit mm)*
G04 Created by KiCad (PCBNEW 7.0.9) date 2023-11-22 04:12:16*
%MOMM*%
%LPD*%
G01*
G04 APERTURE LIST*
%TA.AperFunction,ComponentPad*%
%ADD10R,1.700000X1.700000*%
%TD*%
%TA.AperFunction,ComponentPad*%
%ADD11O,1.700000X1.700000*%
%TD*%
%TA.AperFunction,ComponentPad*%
%ADD12R,1.600000X1.600000*%
%TD*%
%TA.AperFunction,ComponentPad*%
%ADD13O,1.600000X1.600000*%
%TD*%
%TA.AperFunction,ComponentPad*%
%ADD14O,0.900000X2.000000*%
%TD*%
%TA.AperFunction,ComponentPad*%
%ADD15O,0.900000X1.700000*%
%TD*%
%TA.AperFunction,ViaPad*%
%ADD16C,0.800000*%
%TD*%
%TA.AperFunction,Conductor*%
%ADD17C,0.250000*%
%TD*%
G04 APERTURE END LIST*
D10*
%TO.P,J1,1,Pin_1*%
%TO.N,/MISO*%
X144000000Y-75000000D03*
D11*
%TO.P,J1,2,Pin_2*%
%TO.N,VCC*%
X146540000Y-75000000D03*
%TO.P,J1,3,Pin_3*%
%TO.N,/SCK*%
X144000000Y-77540000D03*
%TO.P,J1,4,Pin_4*%
%TO.N,/MOSI*%
X146540000Y-77540000D03*
%TO.P,J1,5,Pin_5*%
%TO.N,/RESET*%
X144000000Y-80080000D03*
%TO.P,J1,6,Pin_6*%
%TO.N,GND*%
X146540000Y-80080000D03*
%TD*%
D10*
%TO.P,J3,1,Pin_1*%
%TO.N,VCC*%
X97500000Y-76420000D03*
D11*
%TO.P,J3,2,Pin_2*%
%TO.N,GND*%
X97500000Y-78960000D03*
%TO.P,J3,3,Pin_3*%
%TO.N,/SCK*%
X97500000Y-81500000D03*
%TO.P,J3,4,Pin_4*%
%TO.N,/MOSI*%
X97500000Y-84040000D03*
%TO.P,J3,5,Pin_5*%
%TO.N,unconnected-(J3-Pin_5-Pad5)*%
X97500000Y-86580000D03*
%TO.P,J3,6,Pin_6*%
%TO.N,unconnected-(J3-Pin_6-Pad6)*%
X97500000Y-89120000D03*
%TO.P,J3,7,Pin_7*%
%TO.N,unconnected-(J3-Pin_7-Pad7)*%
X97500000Y-91660000D03*
%TD*%
D12*
%TO.P,U2,1,VCC*%
%TO.N,VCC*%
X110200000Y-77375000D03*
D13*
%TO.P,U2,2,XTAL1/PB0*%
%TO.N,unconnected-(U2-XTAL1{slash}PB0-Pad2)*%
X110200000Y-79915000D03*
%TO.P,U2,3,XTAL2/PB1*%
%TO.N,unconnected-(U2-XTAL2{slash}PB1-Pad3)*%
X110200000Y-82455000D03*
%TO.P,U2,4,~{RESET}/PB3*%
%TO.N,/RESET*%
X110200000Y-84995000D03*
%TO.P,U2,5,PB2*%
%TO.N,unconnected-(U2-PB2-Pad5)*%
X110200000Y-87535000D03*
%TO.P,U2,6,PA7*%
%TO.N,/LED-Data*%
X110200000Y-90075000D03*
%TO.P,U2,7,PA6*%
%TO.N,/MOSI*%
X110200000Y-92615000D03*
%TO.P,U2,8,PA5*%
%TO.N,/MISO*%
X117820000Y-92615000D03*
%TO.P,U2,9,PA4*%
%TO.N,/SCK*%
X117820000Y-90075000D03*
%TO.P,U2,10,PA3*%
%TO.N,unconnected-(U2-PA3-Pad10)*%
X117820000Y-87535000D03*
%TO.P,U2,11,PA2*%
%TO.N,unconnected-(U2-PA2-Pad11)*%
X117820000Y-84995000D03*
%TO.P,U2,12,PA1*%
%TO.N,unconnected-(U2-PA1-Pad12)*%
X117820000Y-82455000D03*
%TO.P,U2,13,AREF/PA0*%
%TO.N,unconnected-(U2-AREF{slash}PA0-Pad13)*%
X117820000Y-79915000D03*
%TO.P,U2,14,GND*%
%TO.N,GND*%
X117820000Y-77375000D03*
%TD*%
D14*
%TO.P,J2,S1,SHIELD*%
%TO.N,GND*%
X109680000Y-123820000D03*
D15*
X109680000Y-127990000D03*
D14*
X118320000Y-123820000D03*
D15*
X118320000Y-127990000D03*
%TD*%
D16*
%TO.N,GND*%
X142500000Y-49000000D03*
X107000000Y-79000000D03*
X117000000Y-73000000D03*
X140000000Y-79000000D03*
X74000000Y-64000000D03*
X79000000Y-109000000D03*
X114000000Y-88000000D03*
X107000000Y-91000000D03*
X99000000Y-63500000D03*
X155500000Y-69000000D03*
X103000000Y-89000000D03*
X135000000Y-116000000D03*
X99000000Y-68500000D03*
X113500000Y-48500000D03*
X149000000Y-111000000D03*
X98000000Y-58000000D03*
X79000000Y-64000000D03*
X138000000Y-90000000D03*
X125000000Y-116000000D03*
X122000000Y-92000000D03*
X103000000Y-101000000D03*
X117000000Y-68000000D03*
X158000000Y-97000000D03*
X106000000Y-117000000D03*
X86500000Y-112500000D03*
X86000000Y-117000000D03*
X142500000Y-52500000D03*
X95500000Y-59500000D03*
X110000000Y-75000000D03*
X77000000Y-58500000D03*
X107000000Y-84000000D03*
X152000000Y-97000000D03*
X158000000Y-69000000D03*
X116500000Y-111500000D03*
X79000000Y-52500000D03*
X114000000Y-92000000D03*
X114000000Y-84000000D03*
X152000000Y-69000000D03*
X119000000Y-116000000D03*
X79000000Y-49000000D03*
X141000000Y-76000000D03*
X107000000Y-101000000D03*
X136000000Y-88000000D03*
X125000000Y-68000000D03*
X113000000Y-116000000D03*
X131000000Y-76000000D03*
X106000000Y-112500000D03*
X125000000Y-73000000D03*
X130000000Y-83000000D03*
X81500000Y-58500000D03*
X103000000Y-68500000D03*
X130000000Y-88000000D03*
X74000000Y-109000000D03*
X106000000Y-108500000D03*
X136000000Y-73000000D03*
X113500000Y-52500000D03*
X103000000Y-63500000D03*
X106000000Y-73000000D03*
X125000000Y-83000000D03*
X125000000Y-108500000D03*
X125000000Y-88000000D03*
X141000000Y-68000000D03*
X90500000Y-54500000D03*
X141000000Y-108500000D03*
X135000000Y-111500000D03*
X103000000Y-79000000D03*
X135000000Y-108500000D03*
X144000000Y-116000000D03*
X144000000Y-84000000D03*
X155500000Y-97000000D03*
X144000000Y-111000000D03*
X136000000Y-68000000D03*
X141000000Y-73000000D03*
X136000000Y-83000000D03*
X109000000Y-95000000D03*
X134000000Y-94000000D03*
X116000000Y-108500000D03*
X86000000Y-108500000D03*
X136000000Y-76000000D03*
X93000000Y-49000000D03*
X125000000Y-111500000D03*
X126000000Y-95000000D03*
X93000000Y-52500000D03*
X131000000Y-92000000D03*
X116000000Y-95000000D03*
%TO.N,/LED-Data*%
X101000000Y-73000000D03*
%TO.N,Net-(D2-DOUT)*%
X147000000Y-59000000D03*
X153000000Y-59000000D03*
%TO.N,Net-(D3-DOUT)*%
X145000000Y-115000000D03*
X115500000Y-109500000D03*
X109000000Y-109500000D03*
X141000000Y-111000000D03*
%TO.N,/SCK*%
X102500000Y-82000000D03*
X123000000Y-90000000D03*
%TO.N,/MOSI*%
X102500000Y-85000000D03*
%TD*%
D17*
%TO.N,/LED-Data*%
X109068630Y-90075000D02*
X101000000Y-82006370D01*
X101000000Y-82006370D02*
X101000000Y-73000000D01*
X110200000Y-90075000D02*
X109068630Y-90075000D01*
%TO.N,Net-(D2-DOUT)*%
X147000000Y-59000000D02*
X153000000Y-59000000D01*
%TO.N,Net-(D3-DOUT)*%
X115500000Y-109500000D02*
X109000000Y-109500000D01*
X145000000Y-115000000D02*
X141000000Y-111000000D01*
%TO.N,/MISO*%
X135435000Y-75000000D02*
X117820000Y-92615000D01*
X144000000Y-75000000D02*
X135435000Y-75000000D01*
%TO.N,/SCK*%
X115075000Y-90075000D02*
X117820000Y-90075000D01*
X113950000Y-88950000D02*
X115075000Y-90075000D01*
X102500000Y-82000000D02*
X109450000Y-88950000D01*
X131540000Y-90000000D02*
X123000000Y-90000000D01*
X144000000Y-77540000D02*
X131540000Y-90000000D01*
X109450000Y-88950000D02*
X113950000Y-88950000D01*
%TO.N,/MOSI*%
X111325000Y-93740000D02*
X110200000Y-92615000D01*
X108000000Y-92000000D02*
X108615000Y-92615000D01*
X102500000Y-85000000D02*
X108000000Y-90500000D01*
X132260000Y-93740000D02*
X111325000Y-93740000D01*
X108000000Y-90500000D02*
X108000000Y-92000000D01*
X108615000Y-92615000D02*
X110200000Y-92615000D01*
X145175000Y-80825000D02*
X132260000Y-93740000D01*
X146540000Y-77540000D02*
X145175000Y-78905000D01*
X145175000Y-78905000D02*
X145175000Y-80825000D01*
%TD*%
%TA.AperFunction,Conductor*%
%TO.N,GND*%
G36*
X113706587Y-89595185D02*
G01*
X113727229Y-89611819D01*
X114574197Y-90458788D01*
X114584022Y-90471051D01*
X114584243Y-90470869D01*
X114589214Y-90476878D01*
X114610797Y-90497145D01*
X114639635Y-90524226D01*
X114660529Y-90545120D01*
X114666011Y-90549373D01*
X114670443Y-90553157D01*
X114704418Y-90585062D01*
X114721976Y-90594714D01*
X114738235Y-90605395D01*
X114754064Y-90617673D01*
X114796838Y-90636182D01*
X114802056Y-90638738D01*
X114842908Y-90661197D01*
X114862316Y-90666180D01*
X114880717Y-90672480D01*
X114899104Y-90680437D01*
X114942488Y-90687308D01*
X114945119Y-90687725D01*
X114950839Y-90688909D01*
X114995981Y-90700500D01*
X115016016Y-90700500D01*
X115035414Y-90702026D01*
X115055194Y-90705159D01*
X115055195Y-90705160D01*
X115055195Y-90705159D01*
X115055196Y-90705160D01*
X115101584Y-90700775D01*
X115107422Y-90700500D01*
X116605812Y-90700500D01*
X116672851Y-90720185D01*
X116707387Y-90753377D01*
X116819954Y-90914141D01*
X116980858Y-91075045D01*
X116980861Y-91075047D01*
X117167266Y-91205568D01*
X117225275Y-91232618D01*
X117277714Y-91278791D01*
X117296866Y-91345984D01*
X117276650Y-91412865D01*
X117225275Y-91457382D01*
X117167267Y-91484431D01*
X117167265Y-91484432D01*
X116980858Y-91614954D01*
X116819954Y-91775858D01*
X116689432Y-91962265D01*
X116689431Y-91962267D01*
X116593261Y-92168502D01*
X116593258Y-92168511D01*
X116534366Y-92388302D01*
X116534364Y-92388313D01*
X116514532Y-92614998D01*
X116514532Y-92615001D01*
X116534364Y-92841686D01*
X116534366Y-92841697D01*
X116565638Y-92958407D01*
X116563975Y-93028257D01*
X116524812Y-93086119D01*
X116460583Y-93113623D01*
X116445863Y-93114500D01*
X111635453Y-93114500D01*
X111568414Y-93094815D01*
X111547772Y-93078181D01*
X111499413Y-93029822D01*
X111465928Y-92968499D01*
X111467319Y-92910048D01*
X111485635Y-92841692D01*
X111505468Y-92615000D01*
X111485635Y-92388308D01*
X111426739Y-92168504D01*
X111330568Y-91962266D01*
X111200047Y-91775861D01*
X111200045Y-91775858D01*
X111039141Y-91614954D01*
X110852734Y-91484432D01*
X110852728Y-91484429D01*
X110794725Y-91457382D01*
X110742285Y-91411210D01*
X110723133Y-91344017D01*
X110743348Y-91277135D01*
X110794725Y-91232618D01*
X110852734Y-91205568D01*
X111039139Y-91075047D01*
X111200047Y-90914139D01*
X111330568Y-90727734D01*
X111426739Y-90521496D01*
X111485635Y-90301692D01*
X111505468Y-90075000D01*
X111485635Y-89848308D01*
X111472110Y-89797830D01*
X111454362Y-89731593D01*
X111456025Y-89661743D01*
X111495188Y-89603881D01*
X111559417Y-89576377D01*
X111574137Y-89575500D01*
X113639548Y-89575500D01*
X113706587Y-89595185D01*
G37*
%TD.AperFunction*%
%TA.AperFunction,Conductor*%
G36*
X142592540Y-75645185D02*
G01*
X142638295Y-75697989D01*
X142649501Y-75749500D01*
X142649501Y-75897876D01*
X142655908Y-75957483D01*
X142706202Y-76092328D01*
X142706206Y-76092335D01*
X142792452Y-76207544D01*
X142792455Y-76207547D01*
X142907664Y-76293793D01*
X142907671Y-76293797D01*
X143039081Y-76342810D01*
X143095015Y-76384681D01*
X143119432Y-76450145D01*
X143104580Y-76518418D01*
X143083430Y-76546673D01*
X142961503Y-76668600D01*
X142825965Y-76862169D01*
X142825964Y-76862171D01*
X142726098Y-77076335D01*
X142726094Y-77076344D01*
X142664938Y-77304586D01*
X142664936Y-77304596D01*
X142644341Y-77539999D01*
X142644341Y-77540000D01*
X142664936Y-77775403D01*
X142664938Y-77775413D01*
X142691856Y-77875872D01*
X142690193Y-77945722D01*
X142659762Y-77995646D01*
X131317228Y-89338181D01*
X131255905Y-89371666D01*
X131229547Y-89374500D01*
X123703748Y-89374500D01*
X123636709Y-89354815D01*
X123611600Y-89333474D01*
X123605873Y-89327114D01*
X123605869Y-89327110D01*
X123452734Y-89215851D01*
X123452729Y-89215848D01*
X123279807Y-89138857D01*
X123279802Y-89138855D01*
X123134001Y-89107865D01*
X123094646Y-89099500D01*
X122905354Y-89099500D01*
X122872897Y-89106398D01*
X122720197Y-89138855D01*
X122720192Y-89138857D01*
X122547270Y-89215848D01*
X122547265Y-89215851D01*
X122394129Y-89327111D01*
X122267466Y-89467785D01*
X122172821Y-89631715D01*
X122172818Y-89631722D01*
X122114327Y-89811740D01*
X122114326Y-89811744D01*
X122094540Y-90000000D01*
X122114326Y-90188256D01*
X122114327Y-90188259D01*
X122172818Y-90368277D01*
X122172821Y-90368284D01*
X122267467Y-90532216D01*
X122366368Y-90642056D01*
X122394129Y-90672888D01*
X122547265Y-90784148D01*
X122547270Y-90784151D01*
X122720192Y-90861142D01*
X122720197Y-90861144D01*
X122905354Y-90900500D01*
X122905355Y-90900500D01*
X123094644Y-90900500D01*
X123094646Y-90900500D01*
X123279803Y-90861144D01*
X123452730Y-90784151D01*
X123605871Y-90672888D01*
X123608788Y-90669647D01*
X123611600Y-90666526D01*
X123671087Y-90629879D01*
X123703748Y-90625500D01*
X131457257Y-90625500D01*
X131472877Y-90627224D01*
X131472904Y-90626939D01*
X131480660Y-90627671D01*
X131480667Y-90627673D01*
X131549814Y-90625500D01*
X131579350Y-90625500D01*
X131586228Y-90624630D01*
X131592041Y-90624172D01*
X131638627Y-90622709D01*
X131657869Y-90617117D01*
X131676912Y-90613174D01*
X131696792Y-90610664D01*
X131740122Y-90593507D01*
X131745646Y-90591617D01*
X131749396Y-90590527D01*
X131790390Y-90578618D01*
X131807629Y-90568422D01*
X131825103Y-90559862D01*
X131843727Y-90552488D01*
X131843727Y-90552487D01*
X131843732Y-90552486D01*
X131881449Y-90525082D01*
X131886305Y-90521892D01*
X131926420Y-90498170D01*
X131940589Y-90483999D01*
X131955379Y-90471368D01*
X131971587Y-90459594D01*
X132001299Y-90423676D01*
X132005212Y-90419376D01*
X142432662Y-79991927D01*
X142493983Y-79958444D01*
X142563675Y-79963428D01*
X142619608Y-80005300D01*
X142644025Y-80070764D01*
X142644341Y-80079610D01*
X142644341Y-80080000D01*
X142664936Y-80315403D01*
X142664938Y-80315413D01*
X142726094Y-80543655D01*
X142726096Y-80543659D01*
X142726097Y-80543663D01*
X142824244Y-80754139D01*
X142825965Y-80757830D01*
X142825967Y-80757834D01*
X142871017Y-80822171D01*
X142961505Y-80951401D01*
X143128599Y-81118495D01*
X143222174Y-81184017D01*
X143322165Y-81254032D01*
X143322167Y-81254033D01*
X143322170Y-81254035D01*
X143478882Y-81327111D01*
X143529400Y-81350668D01*
X143581839Y-81396840D01*
X143600991Y-81464034D01*
X143580775Y-81530915D01*
X143564676Y-81550731D01*
X132037228Y-93078181D01*
X131975905Y-93111666D01*
X131949547Y-93114500D01*
X119194137Y-93114500D01*
X119127098Y-93094815D01*
X119081343Y-93042011D01*
X119071399Y-92972853D01*
X119074362Y-92958407D01*
X119088263Y-92906524D01*
X119105635Y-92841692D01*
X119125468Y-92615000D01*
X119105635Y-92388308D01*
X119087318Y-92319948D01*
X119088981Y-92250103D01*
X119119410Y-92200179D01*
X135657772Y-75661819D01*
X135719095Y-75628334D01*
X135745453Y-75625500D01*
X142525501Y-75625500D01*
X142592540Y-75645185D01*
G37*
%TD.AperFunction*%
%TA.AperFunction,Conductor*%
G36*
X154415621Y-40218646D02*
G01*
X154420974Y-40219115D01*
X154830745Y-40273062D01*
X154836061Y-40274000D01*
X155239562Y-40363454D01*
X155244774Y-40364850D01*
X155614350Y-40481376D01*
X155638941Y-40489130D01*
X155644026Y-40490981D01*
X155735018Y-40528671D01*
X156025873Y-40649147D01*
X156030743Y-40651418D01*
X156397371Y-40842272D01*
X156402020Y-40844957D01*
X156750602Y-41067029D01*
X156755024Y-41070125D01*
X157082913Y-41321723D01*
X157087058Y-41325202D01*
X157391775Y-41604423D01*
X157395576Y-41608224D01*
X157604186Y-41835882D01*
X157674797Y-41912941D01*
X157678276Y-41917086D01*
X157929874Y-42244975D01*
X157932973Y-42249401D01*
X158155037Y-42597972D01*
X158157731Y-42602635D01*
X158348572Y-42969238D01*
X158350859Y-42974142D01*
X158509018Y-43355973D01*
X158510869Y-43361058D01*
X158635145Y-43755210D01*
X158636545Y-43760437D01*
X158725999Y-44163938D01*
X158726939Y-44169267D01*
X158780882Y-44579008D01*
X158781354Y-44584399D01*
X158799500Y-45000000D01*
X158799500Y-125000000D01*
X158781354Y-125415600D01*
X158780882Y-125420991D01*
X158726939Y-125830732D01*
X158725999Y-125836061D01*
X158636545Y-126239562D01*
X158635145Y-126244789D01*
X158510869Y-126638941D01*
X158509018Y-126644026D01*
X158350859Y-127025857D01*
X158348571Y-127030761D01*
X158199671Y-127316799D01*
X158157738Y-127397351D01*
X158155032Y-127402037D01*
X157932978Y-127750591D01*
X157929874Y-127755024D01*
X157678276Y-128082913D01*
X157674797Y-128087058D01*
X157395589Y-128391762D01*
X157391762Y-128395589D01*
X157087058Y-128674797D01*
X157082913Y-128678276D01*
X156755024Y-128929874D01*
X156750591Y-128932978D01*
X156402037Y-129155032D01*
X156397353Y-129157736D01*
X156151998Y-129285460D01*
X156030761Y-129348572D01*
X156025857Y-129350859D01*
X155644026Y-129509018D01*
X155638941Y-129510869D01*
X155244789Y-129635145D01*
X155239562Y-129636545D01*
X154836061Y-129725999D01*
X154830732Y-129726939D01*
X154420991Y-129780882D01*
X154415600Y-129781354D01*
X154000000Y-129799500D01*
X74000000Y-129799500D01*
X73584399Y-129781354D01*
X73579008Y-129780882D01*
X73169267Y-129726939D01*
X73163938Y-129725999D01*
X72760437Y-129636545D01*
X72755210Y-129635145D01*
X72361058Y-129510869D01*
X72355973Y-129509018D01*
X72056870Y-129385125D01*
X71974136Y-129350856D01*
X71969246Y-129348576D01*
X71602635Y-129157731D01*
X71597972Y-129155037D01*
X71249401Y-128932973D01*
X71244975Y-128929874D01*
X70917086Y-128678276D01*
X70912941Y-128674797D01*
X70777475Y-128550666D01*
X70654714Y-128438176D01*
X108730000Y-128438176D01*
X108744647Y-128582221D01*
X108802484Y-128766561D01*
X108802489Y-128766571D01*
X108896251Y-128935498D01*
X108896256Y-128935505D01*
X109022107Y-129082105D01*
X109174890Y-129200368D01*
X109174894Y-129200370D01*
X109348363Y-129285460D01*
X109430000Y-129306596D01*
X109430000Y-128556110D01*
X109454457Y-128595610D01*
X109543962Y-128663201D01*
X109651840Y-128693895D01*
X109763521Y-128683546D01*
X109863922Y-128633552D01*
X109930000Y-128561069D01*
X109930000Y-129310470D01*
X110100524Y-129247315D01*
X110100531Y-129247312D01*
X110264503Y-129145107D01*
X110404534Y-129011997D01*
X110404535Y-129011996D01*
X110514913Y-128853413D01*
X110591106Y-128675862D01*
X110630000Y-128486606D01*
X110630000Y-128438176D01*
X117370000Y-128438176D01*
X117384647Y-128582221D01*
X117442484Y-128766561D01*
X117442489Y-128766571D01*
X117536251Y-128935498D01*
X117536256Y-128935505D01*
X117662107Y-129082105D01*
X117814890Y-129200368D01*
X117814894Y-129200370D01*
X117988363Y-129285460D01*
X118070000Y-129306596D01*
X118070000Y-128556110D01*
X118094457Y-128595610D01*
X118183962Y-128663201D01*
X118291840Y-128693895D01*
X118403521Y-128683546D01*
X118503922Y-128633552D01*
X118570000Y-128561069D01*
X118570000Y-129310470D01*
X118740524Y-129247315D01*
X118740531Y-129247312D01*
X118904503Y-129145107D01*
X119044534Y-129011997D01*
X119044535Y-129011996D01*
X119154913Y-128853413D01*
X119231106Y-128675862D01*
X119270000Y-128486606D01*
X119270000Y-128240000D01*
X118620000Y-128240000D01*
X118620000Y-127740000D01*
X119270000Y-127740000D01*
X119270000Y-127541823D01*
X119255352Y-127397778D01*
X119197515Y-127213438D01*
X119197510Y-127213428D01*
X119103748Y-127044501D01*
X119103743Y-127044494D01*
X118977892Y-126897894D01*
X118825109Y-126779631D01*
X118825105Y-126779629D01*
X118651642Y-126694542D01*
X118651643Y-126694542D01*
X118570000Y-126673403D01*
X118570000Y-127423889D01*
X118545543Y-127384390D01*
X118456038Y-127316799D01*
X118348160Y-127286105D01*
X118236479Y-127296454D01*
X118136078Y-127346448D01*
X118070000Y-127418930D01*
X118070000Y-126669528D01*
X117899472Y-126732685D01*
X117899468Y-126732687D01*
X117735496Y-126834892D01*
X117595465Y-126968002D01*
X117595464Y-126968003D01*
X117485086Y-127126586D01*
X117408893Y-127304137D01*
X117370000Y-127493393D01*
X117370000Y-127740000D01*
X118020000Y-127740000D01*
X118020000Y-128240000D01*
X117370000Y-128240000D01*
X117370000Y-128438176D01*
X110630000Y-128438176D01*
X110630000Y-128240000D01*
X109980000Y-128240000D01*
X109980000Y-127740000D01*
X110630000Y-127740000D01*
X110630000Y-127541823D01*
X110615352Y-127397778D01*
X110557515Y-127213438D01*
X110557510Y-127213428D01*
X110463748Y-127044501D01*
X110463743Y-127044494D01*
X110337892Y-126897894D01*
X110185109Y-126779631D01*
X110185105Y-126779629D01*
X110011642Y-126694542D01*
X110011643Y-126694542D01*
X109930000Y-126673403D01*
X109930000Y-127423889D01*
X109905543Y-127384390D01*
X109816038Y-127316799D01*
X109708160Y-127286105D01*
X109596479Y-127296454D01*
X109496078Y-127346448D01*
X109430000Y-127418930D01*
X109430000Y-126669528D01*
X109259472Y-126732685D01*
X109259468Y-126732687D01*
X109095496Y-126834892D01*
X108955465Y-126968002D01*
X108955464Y-126968003D01*
X108845086Y-127126586D01*
X108768893Y-127304137D01*
X108730000Y-127493393D01*
X108730000Y-127740000D01*
X109380000Y-127740000D01*
X109380000Y-128240000D01*
X108730000Y-128240000D01*
X108730000Y-128438176D01*
X70654714Y-128438176D01*
X70608224Y-128395576D01*
X70604423Y-128391775D01*
X70325202Y-128087058D01*
X70321723Y-128082913D01*
X70276880Y-128024473D01*
X70070123Y-127755021D01*
X70067029Y-127750602D01*
X69844957Y-127402020D01*
X69842272Y-127397371D01*
X69651418Y-127030743D01*
X69649147Y-127025873D01*
X69527705Y-126732687D01*
X69490981Y-126644026D01*
X69489130Y-126638941D01*
X69481376Y-126614350D01*
X69364850Y-126244774D01*
X69363454Y-126239562D01*
X69274000Y-125836061D01*
X69273062Y-125830745D01*
X69219115Y-125420974D01*
X69218646Y-125415621D01*
X69203465Y-125067909D01*
X72141779Y-125067909D01*
X72171468Y-125337735D01*
X72171470Y-125337748D01*
X72206127Y-125470315D01*
X72240132Y-125600384D01*
X72346303Y-125850224D01*
X72418588Y-125968668D01*
X72487716Y-126081940D01*
X72487717Y-126081942D01*
X72487719Y-126081944D01*
X72661368Y-126290604D01*
X72863546Y-126471757D01*
X73089947Y-126621542D01*
X73335743Y-126736767D01*
X73595697Y-126814975D01*
X73864268Y-126854500D01*
X73864273Y-126854500D01*
X74067786Y-126854500D01*
X74119394Y-126850722D01*
X74270740Y-126839645D01*
X74381488Y-126814975D01*
X74535702Y-126780623D01*
X74535704Y-126780622D01*
X74535709Y-126780621D01*
X74789261Y-126683646D01*
X75025991Y-126550786D01*
X75240853Y-126384875D01*
X75429269Y-126189447D01*
X75587223Y-125968668D01*
X75711348Y-125727244D01*
X75798998Y-125470320D01*
X75848306Y-125203371D01*
X75858220Y-124932089D01*
X75828530Y-124662253D01*
X75764720Y-124418176D01*
X108730000Y-124418176D01*
X108744647Y-124562221D01*
X108802484Y-124746561D01*
X108802489Y-124746571D01*
X108896251Y-124915498D01*
X108896256Y-124915505D01*
X109022107Y-125062105D01*
X109174890Y-125180368D01*
X109174894Y-125180370D01*
X109348363Y-125265460D01*
X109430000Y-125286596D01*
X109430000Y-124536110D01*
X109454457Y-124575610D01*
X109543962Y-124643201D01*
X109651840Y-124673895D01*
X109763521Y-124663546D01*
X109863922Y-124613552D01*
X109930000Y-124541069D01*
X109930000Y-125290470D01*
X110100524Y-125227315D01*
X110100531Y-125227312D01*
X110264503Y-125125107D01*
X110404534Y-124991997D01*
X110404535Y-124991996D01*
X110514914Y-124833412D01*
X110545322Y-124762552D01*
X110589848Y-124708708D01*
X110656416Y-124687484D01*
X110723891Y-124705619D01*
X110749892Y-124726809D01*
X110756772Y-124734176D01*
X110887010Y-124813375D01*
X111033786Y-124854500D01*
X111033787Y-124854500D01*
X111147928Y-124854500D01*
X111176197Y-124850614D01*
X111261009Y-124838957D01*
X111400818Y-124778230D01*
X111519058Y-124682034D01*
X111606961Y-124557504D01*
X111653669Y-124426080D01*
X111658005Y-124413881D01*
X111658005Y-124413879D01*
X111658006Y-124413877D01*
X111663183Y-124338196D01*
X116331592Y-124338196D01*
X116362604Y-124487436D01*
X116432731Y-124622775D01*
X116536772Y-124734176D01*
X116667010Y-124813375D01*
X116813786Y-124854500D01*
X116813787Y-124854500D01*
X116927928Y-124854500D01*
X116956197Y-124850614D01*
X117041009Y-124838957D01*
X117180818Y-124778230D01*
X117258358Y-124715145D01*
X117322784Y-124688107D01*
X117391601Y-124700191D01*
X117442959Y-124747563D01*
X117445033Y-124751155D01*
X117536251Y-124915498D01*
X117536256Y-124915505D01*
X117662107Y-125062105D01*
X117814890Y-125180368D01*
X117814894Y-125180370D01*
X117988363Y-125265460D01*
X118070000Y-125286596D01*
X118070000Y-124536110D01*
X118094457Y-124575610D01*
X118183962Y-124643201D01*
X118291840Y-124673895D01*
X118403521Y-124663546D01*
X118503922Y-124613552D01*
X118570000Y-124541069D01*
X118570000Y-125290470D01*
X118740524Y-125227315D01*
X118740531Y-125227312D01*
X118904503Y-125125107D01*
X118964675Y-125067909D01*
X152141779Y-125067909D01*
X152171468Y-125337735D01*
X152171470Y-125337748D01*
X152206127Y-125470315D01*
X152240132Y-125600384D01*
X152346303Y-125850224D01*
X152418588Y-125968668D01*
X152487716Y-126081940D01*
X152487717Y-126081942D01*
X152487719Y-126081944D01*
X152661368Y-126290604D01*
X152863546Y-126471757D01*
X153089947Y-126621542D01*
X153335743Y-126736767D01*
X153595697Y-126814975D01*
X153864268Y-126854500D01*
X153864273Y-126854500D01*
X154067786Y-126854500D01*
X154119394Y-126850722D01*
X154270740Y-126839645D01*
X154381488Y-126814975D01*
X154535702Y-126780623D01*
X154535704Y-126780622D01*
X154535709Y-126780621D01*
X154789261Y-126683646D01*
X155025991Y-126550786D01*
X155240853Y-126384875D01*
X155429269Y-126189447D01*
X155587223Y-125968668D01*
X155711348Y-125727244D01*
X155798998Y-125470320D01*
X155848306Y-125203371D01*
X155858220Y-124932089D01*
X155828530Y-124662253D01*
X155759868Y-124399616D01*
X155653697Y-124149776D01*
X155512281Y-123918056D01*
X155338632Y-123709396D01*
X155136454Y-123528243D01*
X154910053Y-123378458D01*
X154664257Y-123263233D01*
X154404303Y-123185025D01*
X154404301Y-123185024D01*
X154404299Y-123185024D01*
X154307999Y-123170852D01*
X154135732Y-123145500D01*
X153932219Y-123145500D01*
X153932214Y-123145500D01*
X153729260Y-123160355D01*
X153729246Y-123160357D01*
X153464297Y-123219376D01*
X153464290Y-123219379D01*
X153210736Y-123316355D01*
X152974012Y-123449211D01*
X152759140Y-123615130D01*
X152759139Y-123615132D01*
X152570734Y-123810549D01*
X152570732Y-123810551D01*
X152412778Y-124031329D01*
X152288656Y-124272746D01*
X152288649Y-124272762D01*
X152201005Y-124529666D01*
X152201001Y-124529684D01*
X152151693Y-124796631D01*
X152151693Y-124796633D01*
X152141779Y-125067909D01*
X118964675Y-125067909D01*
X119044534Y-124991997D01*
X119044535Y-124991996D01*
X119154913Y-124833413D01*
X119231106Y-124655862D01*
X119270000Y-124466606D01*
X119270000Y-124070000D01*
X118620000Y-124070000D01*
X118620000Y-123570000D01*
X119270000Y-123570000D01*
X119270000Y-123221823D01*
X119255352Y-123077778D01*
X119197515Y-122893438D01*
X119197510Y-122893428D01*
X119103748Y-122724501D01*
X119103743Y-122724494D01*
X118977892Y-122577894D01*
X118825109Y-122459631D01*
X118825105Y-122459629D01*
X118651642Y-122374542D01*
X118651643Y-122374542D01*
X118570000Y-122353403D01*
X118570000Y-123103889D01*
X118545543Y-123064390D01*
X118456038Y-122996799D01*
X118348160Y-122966105D01*
X118236479Y-122976454D01*
X118136078Y-123026448D01*
X118070000Y-123098930D01*
X118070000Y-122349528D01*
X117899472Y-122412685D01*
X117899468Y-122412687D01*
X117735496Y-122514892D01*
X117595465Y-122648002D01*
X117595464Y-122648003D01*
X117485086Y-122806586D01*
X117408893Y-122984137D01*
X117370000Y-123173393D01*
X117370000Y-123722382D01*
X117350315Y-123789421D01*
X117297511Y-123835176D01*
X117228353Y-123845120D01*
X117181572Y-123828330D01*
X117112992Y-123786626D01*
X117112991Y-123786625D01*
X117112990Y-123786625D01*
X116966214Y-123745500D01*
X116852073Y-123745500D01*
X116852072Y-123745500D01*
X116738993Y-123761042D01*
X116738987Y-123761044D01*
X116599182Y-123821769D01*
X116599180Y-123821771D01*
X116480945Y-123917963D01*
X116480940Y-123917968D01*
X116393038Y-124042496D01*
X116341994Y-124186118D01*
X116341994Y-124186121D01*
X116341994Y-124186123D01*
X116331592Y-124338196D01*
X111663183Y-124338196D01*
X111668408Y-124261804D01*
X111637396Y-124112564D01*
X111567269Y-123977225D01*
X111463228Y-123865824D01*
X111463227Y-123865823D01*
X111332992Y-123786626D01*
X111332991Y-123786625D01*
X111332990Y-123786625D01*
X111186214Y-123745500D01*
X111072073Y-123745500D01*
X111072072Y-123745500D01*
X110958993Y-123761042D01*
X110958987Y-123761044D01*
X110819180Y-123821770D01*
X110818423Y-123822231D01*
X110817637Y-123822440D01*
X110811402Y-123825149D01*
X110810995Y-123824212D01*
X110750915Y-123840242D01*
X110684386Y-123818895D01*
X110639959Y-123764969D01*
X110630000Y-123716280D01*
X110630000Y-123221823D01*
X110615352Y-123077778D01*
X110557515Y-122893438D01*
X110557510Y-122893428D01*
X110463748Y-122724501D01*
X110463743Y-122724494D01*
X110337892Y-122577894D01*
X110185109Y-122459631D01*
X110185105Y-122459629D01*
X110011642Y-122374542D01*
X110011643Y-122374542D01*
X109930000Y-122353403D01*
X109930000Y-123103889D01*
X109905543Y-123064390D01*
X109816038Y-122996799D01*
X109708160Y-122966105D01*
X109596479Y-122976454D01*
X109496078Y-123026448D01*
X109430000Y-123098930D01*
X109430000Y-122349528D01*
X109259472Y-122412685D01*
X109259468Y-122412687D01*
X109095496Y-122514892D01*
X108955465Y-122648002D01*
X108955464Y-122648003D01*
X108845086Y-122806586D01*
X108768893Y-122984137D01*
X108730000Y-123173393D01*
X108730000Y-123570000D01*
X109380000Y-123570000D01*
X109380000Y-124070000D01*
X108730000Y-124070000D01*
X108730000Y-124418176D01*
X75764720Y-124418176D01*
X75759868Y-124399616D01*
X75653697Y-124149776D01*
X75512281Y-123918056D01*
X75338632Y-123709396D01*
X75136454Y-123528243D01*
X74910053Y-123378458D01*
X74664257Y-123263233D01*
X74404303Y-123185025D01*
X74404301Y-123185024D01*
X74404299Y-123185024D01*
X74307999Y-123170852D01*
X74135732Y-123145500D01*
X73932219Y-123145500D01*
X73932214Y-123145500D01*
X73729260Y-123160355D01*
X73729246Y-123160357D01*
X73464297Y-123219376D01*
X73464290Y-123219379D01*
X73210736Y-123316355D01*
X72974012Y-123449211D01*
X72759140Y-123615130D01*
X72759139Y-123615132D01*
X72570734Y-123810549D01*
X72570732Y-123810551D01*
X72412778Y-124031329D01*
X72288656Y-124272746D01*
X72288649Y-124272762D01*
X72201005Y-124529666D01*
X72201001Y-124529684D01*
X72151693Y-124796631D01*
X72151693Y-124796633D01*
X72141779Y-125067909D01*
X69203465Y-125067909D01*
X69200500Y-125000000D01*
X69200500Y-124960118D01*
X69200500Y-111000000D01*
X140094540Y-111000000D01*
X140114326Y-111188256D01*
X140114327Y-111188259D01*
X140172818Y-111368277D01*
X140172821Y-111368284D01*
X140267467Y-111532216D01*
X140394129Y-111672888D01*
X140547265Y-111784148D01*
X140547270Y-111784151D01*
X140720192Y-111861142D01*
X140720197Y-111861144D01*
X140905354Y-111900500D01*
X140964548Y-111900500D01*
X141031587Y-111920185D01*
X141052229Y-111936819D01*
X144061038Y-114945629D01*
X144094523Y-115006952D01*
X144096678Y-115020348D01*
X144104968Y-115099227D01*
X144114326Y-115188256D01*
X144114327Y-115188259D01*
X144172818Y-115368277D01*
X144172821Y-115368284D01*
X144267467Y-115532216D01*
X144394129Y-115672888D01*
X144547265Y-115784148D01*
X144547270Y-115784151D01*
X144720192Y-115861142D01*
X144720197Y-115861144D01*
X144905354Y-115900500D01*
X144905355Y-115900500D01*
X145094644Y-115900500D01*
X145094646Y-115900500D01*
X145279803Y-115861144D01*
X145452730Y-115784151D01*
X145605871Y-115672888D01*
X145732533Y-115532216D01*
X145827179Y-115368284D01*
X145885674Y-115188256D01*
X145905460Y-115000000D01*
X145885674Y-114811744D01*
X145827179Y-114631716D01*
X145732533Y-114467784D01*
X145605871Y-114327112D01*
X145605870Y-114327111D01*
X145452734Y-114215851D01*
X145452729Y-114215848D01*
X145279807Y-114138857D01*
X145279802Y-114138855D01*
X145134001Y-114107865D01*
X145094646Y-114099500D01*
X145094645Y-114099500D01*
X145035453Y-114099500D01*
X144968414Y-114079815D01*
X144947772Y-114063181D01*
X141938960Y-111054369D01*
X141905475Y-110993046D01*
X141903323Y-110979668D01*
X141885674Y-110811744D01*
X141827179Y-110631716D01*
X141732533Y-110467784D01*
X141605871Y-110327112D01*
X141605870Y-110327111D01*
X141452734Y-110215851D01*
X141452729Y-110215848D01*
X141279807Y-110138857D01*
X141279802Y-110138855D01*
X141134001Y-110107865D01*
X141094646Y-110099500D01*
X140905354Y-110099500D01*
X140872897Y-110106398D01*
X140720197Y-110138855D01*
X140720192Y-110138857D01*
X140547270Y-110215848D01*
X140547265Y-110215851D01*
X140394129Y-110327111D01*
X140267466Y-110467785D01*
X140172821Y-110631715D01*
X140172818Y-110631722D01*
X140114327Y-110811740D01*
X140114326Y-110811744D01*
X140094540Y-111000000D01*
X69200500Y-111000000D01*
X69200500Y-109500000D01*
X108094540Y-109500000D01*
X108114326Y-109688256D01*
X108114327Y-109688259D01*
X108172818Y-109868277D01*
X108172821Y-109868284D01*
X108267467Y-110032216D01*
X108363487Y-110138857D01*
X108394129Y-110172888D01*
X108547265Y-110284148D01*
X108547270Y-110284151D01*
X108720192Y-110361142D01*
X108720197Y-110361144D01*
X108905354Y-110400500D01*
X108905355Y-110400500D01*
X109094644Y-110400500D01*
X109094646Y-110400500D01*
X109279803Y-110361144D01*
X109452730Y-110284151D01*
X109605871Y-110172888D01*
X109608788Y-110169647D01*
X109611600Y-110166526D01*
X109671087Y-110129879D01*
X109703748Y-110125500D01*
X114796252Y-110125500D01*
X114863291Y-110145185D01*
X114888400Y-110166526D01*
X114894126Y-110172885D01*
X114894130Y-110172889D01*
X115047265Y-110284148D01*
X115047270Y-110284151D01*
X115220192Y-110361142D01*
X115220197Y-110361144D01*
X115405354Y-110400500D01*
X115405355Y-110400500D01*
X115594644Y-110400500D01*
X115594646Y-110400500D01*
X115779803Y-110361144D01*
X115952730Y-110284151D01*
X116105871Y-110172888D01*
X116232533Y-110032216D01*
X116327179Y-109868284D01*
X116385674Y-109688256D01*
X116405460Y-109500000D01*
X116385674Y-109311744D01*
X116327179Y-109131716D01*
X116232533Y-108967784D01*
X116105871Y-108827112D01*
X116105870Y-108827111D01*
X115952734Y-108715851D01*
X115952729Y-108715848D01*
X115779807Y-108638857D01*
X115779802Y-108638855D01*
X115634001Y-108607865D01*
X115594646Y-108599500D01*
X115405354Y-108599500D01*
X115372897Y-108606398D01*
X115220197Y-108638855D01*
X115220192Y-108638857D01*
X115047270Y-108715848D01*
X115047265Y-108715851D01*
X114894130Y-108827110D01*
X114894126Y-108827114D01*
X114888400Y-108833474D01*
X114828913Y-108870121D01*
X114796252Y-108874500D01*
X109703748Y-108874500D01*
X109636709Y-108854815D01*
X109611600Y-108833474D01*
X109605873Y-108827114D01*
X109605869Y-108827110D01*
X109452734Y-108715851D01*
X109452729Y-108715848D01*
X109279807Y-108638857D01*
X109279802Y-108638855D01*
X109134001Y-108607865D01*
X109094646Y-108599500D01*
X108905354Y-108599500D01*
X108872897Y-108606398D01*
X108720197Y-108638855D01*
X108720192Y-108638857D01*
X108547270Y-108715848D01*
X108547265Y-108715851D01*
X108394129Y-108827111D01*
X108267466Y-108967785D01*
X108172821Y-109131715D01*
X108172818Y-109131722D01*
X108114327Y-109311740D01*
X108114326Y-109311744D01*
X108094540Y-109500000D01*
X69200500Y-109500000D01*
X69200500Y-91660000D01*
X96144341Y-91660000D01*
X96164936Y-91895403D01*
X96164938Y-91895413D01*
X96226094Y-92123655D01*
X96226096Y-92123659D01*
X96226097Y-92123663D01*
X96263017Y-92202837D01*
X96325965Y-92337830D01*
X96325967Y-92337834D01*
X96391614Y-92431587D01*
X96461505Y-92531401D01*
X96628599Y-92698495D01*
X96725384Y-92766265D01*
X96822165Y-92834032D01*
X96822167Y-92834033D01*
X96822170Y-92834035D01*
X97036337Y-92933903D01*
X97264592Y-92995063D01*
X97445251Y-93010869D01*
X97499999Y-93015659D01*
X97500000Y-93015659D01*
X97500001Y-93015659D01*
X97552668Y-93011051D01*
X97735408Y-92995063D01*
X97963663Y-92933903D01*
X98177830Y-92834035D01*
X98371401Y-92698495D01*
X98538495Y-92531401D01*
X98674035Y-92337830D01*
X98773903Y-92123663D01*
X98835063Y-91895408D01*
X98855659Y-91660000D01*
X98835063Y-91424592D01*
X98776377Y-91205570D01*
X98773905Y-91196344D01*
X98773904Y-91196343D01*
X98773903Y-91196337D01*
X98674035Y-90982171D01*
X98589292Y-90861144D01*
X98538494Y-90788597D01*
X98371402Y-90621506D01*
X98371396Y-90621501D01*
X98185842Y-90491575D01*
X98142217Y-90436998D01*
X98135023Y-90367500D01*
X98166546Y-90305145D01*
X98185842Y-90288425D01*
X98208026Y-90272891D01*
X98371401Y-90158495D01*
X98538495Y-89991401D01*
X98674035Y-89797830D01*
X98773903Y-89583663D01*
X98835063Y-89355408D01*
X98855659Y-89120000D01*
X98835063Y-88884592D01*
X98776377Y-88665570D01*
X98773905Y-88656344D01*
X98773904Y-88656343D01*
X98773903Y-88656337D01*
X98674035Y-88442171D01*
X98672472Y-88439938D01*
X98538494Y-88248597D01*
X98371402Y-88081506D01*
X98371396Y-88081501D01*
X98185842Y-87951575D01*
X98142217Y-87896998D01*
X98135023Y-87827500D01*
X98166546Y-87765145D01*
X98185842Y-87748425D01*
X98208026Y-87732891D01*
X98371401Y-87618495D01*
X98538495Y-87451401D01*
X98674035Y-87257830D01*
X98773903Y-87043663D01*
X98835063Y-86815408D01*
X98855659Y-86580000D01*
X98835063Y-86344592D01*
X98776377Y-86125570D01*
X98773905Y-86116344D01*
X98773904Y-86116343D01*
X98773903Y-86116337D01*
X98674035Y-85902171D01*
X98645307Y-85861142D01*
X98538494Y-85708597D01*
X98371402Y-85541506D01*
X98371396Y-85541501D01*
X98185842Y-85411575D01*
X98142217Y-85356998D01*
X98135023Y-85287500D01*
X98166546Y-85225145D01*
X98185842Y-85208425D01*
X98214646Y-85188256D01*
X98371401Y-85078495D01*
X98538495Y-84911401D01*
X98674035Y-84717830D01*
X98773903Y-84503663D01*
X98835063Y-84275408D01*
X98855659Y-84040000D01*
X98835063Y-83804592D01*
X98776377Y-83585570D01*
X98773905Y-83576344D01*
X98773904Y-83576343D01*
X98773903Y-83576337D01*
X98674035Y-83362171D01*
X98538495Y-83168599D01*
X98538494Y-83168597D01*
X98371402Y-83001506D01*
X98371396Y-83001501D01*
X98185842Y-82871575D01*
X98142217Y-82816998D01*
X98135023Y-82747500D01*
X98166546Y-82685145D01*
X98185842Y-82668425D01*
X98208026Y-82652891D01*
X98371401Y-82538495D01*
X98538495Y-82371401D01*
X98674035Y-82177830D01*
X98773903Y-81963663D01*
X98835063Y-81735408D01*
X98855659Y-81500000D01*
X98852840Y-81467785D01*
X98840533Y-81327111D01*
X98835063Y-81264592D01*
X98776377Y-81045570D01*
X98773905Y-81036344D01*
X98773904Y-81036343D01*
X98773903Y-81036337D01*
X98674035Y-80822171D01*
X98628984Y-80757830D01*
X98538494Y-80628597D01*
X98371402Y-80461506D01*
X98371401Y-80461505D01*
X98185405Y-80331269D01*
X98141781Y-80276692D01*
X98134588Y-80207193D01*
X98166110Y-80144839D01*
X98185405Y-80128119D01*
X98371082Y-79998105D01*
X98538105Y-79831082D01*
X98673600Y-79637578D01*
X98773429Y-79423492D01*
X98773432Y-79423486D01*
X98830636Y-79210000D01*
X97933686Y-79210000D01*
X97959493Y-79169844D01*
X98000000Y-79031889D01*
X98000000Y-78888111D01*
X97959493Y-78750156D01*
X97933686Y-78710000D01*
X98830636Y-78710000D01*
X98830635Y-78709999D01*
X98773432Y-78496513D01*
X98773429Y-78496507D01*
X98673600Y-78282422D01*
X98673599Y-78282420D01*
X98538113Y-78088926D01*
X98538108Y-78088920D01*
X98416053Y-77966865D01*
X98382568Y-77905542D01*
X98387552Y-77835850D01*
X98429424Y-77779917D01*
X98460400Y-77763002D01*
X98592331Y-77713796D01*
X98707546Y-77627546D01*
X98793796Y-77512331D01*
X98844091Y-77377483D01*
X98850500Y-77317873D01*
X98850499Y-75522128D01*
X98844091Y-75462517D01*
X98793796Y-75327669D01*
X98793795Y-75327668D01*
X98793793Y-75327664D01*
X98707547Y-75212455D01*
X98707544Y-75212452D01*
X98592335Y-75126206D01*
X98592328Y-75126202D01*
X98457482Y-75075908D01*
X98457483Y-75075908D01*
X98397883Y-75069501D01*
X98397881Y-75069500D01*
X98397873Y-75069500D01*
X98397864Y-75069500D01*
X96602129Y-75069500D01*
X96602123Y-75069501D01*
X96542516Y-75075908D01*
X96407671Y-75126202D01*
X96407664Y-75126206D01*
X96292455Y-75212452D01*
X96292452Y-75212455D01*
X96206206Y-75327664D01*
X96206202Y-75327671D01*
X96155908Y-75462517D01*
X96149501Y-75522116D01*
X96149501Y-75522123D01*
X96149500Y-75522135D01*
X96149500Y-77317870D01*
X96149501Y-77317876D01*
X96155908Y-77377483D01*
X96206202Y-77512328D01*
X96206206Y-77512335D01*
X96292452Y-77627544D01*
X96292455Y-77627547D01*
X96407664Y-77713793D01*
X96407671Y-77713797D01*
X96407674Y-77713798D01*
X96539598Y-77763002D01*
X96595531Y-77804873D01*
X96619949Y-77870337D01*
X96605098Y-77938610D01*
X96583947Y-77966865D01*
X96461886Y-78088926D01*
X96326400Y-78282420D01*
X96326399Y-78282422D01*
X96226570Y-78496507D01*
X96226567Y-78496513D01*
X96169364Y-78709999D01*
X96169364Y-78710000D01*
X97066314Y-78710000D01*
X97040507Y-78750156D01*
X97000000Y-78888111D01*
X97000000Y-79031889D01*
X97040507Y-79169844D01*
X97066314Y-79210000D01*
X96169364Y-79210000D01*
X96226567Y-79423486D01*
X96226570Y-79423492D01*
X96326399Y-79637578D01*
X96461894Y-79831082D01*
X96628917Y-79998105D01*
X96814595Y-80128119D01*
X96858219Y-80182696D01*
X96865412Y-80252195D01*
X96833890Y-80314549D01*
X96814595Y-80331269D01*
X96628594Y-80461508D01*
X96461505Y-80628597D01*
X96325965Y-80822169D01*
X96325964Y-80822171D01*
X96226098Y-81036335D01*
X96226094Y-81036344D01*
X96164938Y-81264586D01*
X96164936Y-81264596D01*
X96144341Y-81499999D01*
X96144341Y-81500000D01*
X96164936Y-81735403D01*
X96164938Y-81735413D01*
X96226094Y-81963655D01*
X96226096Y-81963659D01*
X96226097Y-81963663D01*
X96270283Y-82058420D01*
X96325965Y-82177830D01*
X96325967Y-82177834D01*
X96381231Y-82256758D01*
X96444974Y-82347793D01*
X96461501Y-82371395D01*
X96461506Y-82371402D01*
X96628597Y-82538493D01*
X96628603Y-82538498D01*
X96814158Y-82668425D01*
X96857783Y-82723002D01*
X96864977Y-82792500D01*
X96833454Y-82854855D01*
X96814158Y-82871575D01*
X96628597Y-83001505D01*
X96461505Y-83168597D01*
X96325965Y-83362169D01*
X96325964Y-83362171D01*
X96226098Y-83576335D01*
X96226094Y-83576344D01*
X96164938Y-83804586D01*
X96164936Y-83804596D01*
X96144341Y-84039999D01*
X96144341Y-84040000D01*
X96164936Y-84275403D01*
X96164938Y-84275413D01*
X96226094Y-84503655D01*
X96226096Y-84503659D01*
X96226097Y-84503663D01*
X96247006Y-84548502D01*
X96325965Y-84717830D01*
X96325967Y-84717834D01*
X96461501Y-84911395D01*
X96461506Y-84911402D01*
X96628597Y-85078493D01*
X96628603Y-85078498D01*
X96814158Y-85208425D01*
X96857783Y-85263002D01*
X96864977Y-85332500D01*
X96833454Y-85394855D01*
X96814158Y-85411575D01*
X96628597Y-85541505D01*
X96461505Y-85708597D01*
X96325965Y-85902169D01*
X96325964Y-85902171D01*
X96226098Y-86116335D01*
X96226094Y-86116344D01*
X96164938Y-86344586D01*
X96164936Y-86344596D01*
X96144341Y-86579999D01*
X96144341Y-86580000D01*
X96164936Y-86815403D01*
X96164938Y-86815413D01*
X96226094Y-87043655D01*
X96226096Y-87043659D01*
X96226097Y-87043663D01*
X96247006Y-87088502D01*
X96325965Y-87257830D01*
X96325967Y-87257834D01*
X96461501Y-87451395D01*
X96461506Y-87451402D01*
X96628597Y-87618493D01*
X96628603Y-87618498D01*
X96814158Y-87748425D01*
X96857783Y-87803002D01*
X96864977Y-87872500D01*
X96833454Y-87934855D01*
X96814158Y-87951575D01*
X96628597Y-88081505D01*
X96461505Y-88248597D01*
X96325965Y-88442169D01*
X96325964Y-88442171D01*
X96226098Y-88656335D01*
X96226094Y-88656344D01*
X96164938Y-88884586D01*
X96164936Y-88884596D01*
X96144341Y-89119999D01*
X96144341Y-89120000D01*
X96164936Y-89355403D01*
X96164938Y-89355413D01*
X96226094Y-89583655D01*
X96226096Y-89583659D01*
X96226097Y-89583663D01*
X96295078Y-89731593D01*
X96325965Y-89797830D01*
X96325967Y-89797834D01*
X96461501Y-89991395D01*
X96461506Y-89991402D01*
X96628597Y-90158493D01*
X96628603Y-90158498D01*
X96814158Y-90288425D01*
X96857783Y-90343002D01*
X96864977Y-90412500D01*
X96833454Y-90474855D01*
X96814158Y-90491575D01*
X96628597Y-90621505D01*
X96461505Y-90788597D01*
X96325965Y-90982169D01*
X96325964Y-90982171D01*
X96226098Y-91196335D01*
X96226094Y-91196344D01*
X96164938Y-91424586D01*
X96164936Y-91424596D01*
X96144341Y-91659999D01*
X96144341Y-91660000D01*
X69200500Y-91660000D01*
X69200500Y-73000000D01*
X100094540Y-73000000D01*
X100114326Y-73188256D01*
X100114327Y-73188259D01*
X100172818Y-73368277D01*
X100172821Y-73368284D01*
X100267467Y-73532216D01*
X100310772Y-73580310D01*
X100342650Y-73615715D01*
X100372880Y-73678706D01*
X100374500Y-73698687D01*
X100374500Y-81923625D01*
X100372775Y-81939242D01*
X100373061Y-81939269D01*
X100372326Y-81947035D01*
X100374500Y-82016184D01*
X100374500Y-82045713D01*
X100374501Y-82045730D01*
X100375368Y-82052601D01*
X100375826Y-82058420D01*
X100377290Y-82104994D01*
X100377291Y-82104997D01*
X100382880Y-82124237D01*
X100386824Y-82143281D01*
X100389336Y-82163162D01*
X100395145Y-82177834D01*
X100406490Y-82206489D01*
X100408382Y-82212017D01*
X100421381Y-82256758D01*
X100431580Y-82274004D01*
X100440138Y-82291473D01*
X100447514Y-82310102D01*
X100474898Y-82347793D01*
X100478106Y-82352677D01*
X100501827Y-82392786D01*
X100501833Y-82392794D01*
X100515990Y-82406950D01*
X100528628Y-82421746D01*
X100540405Y-82437956D01*
X100540406Y-82437957D01*
X100576309Y-82467658D01*
X100580620Y-82471580D01*
X101403179Y-83294139D01*
X102111786Y-84002746D01*
X102145271Y-84064069D01*
X102140287Y-84133761D01*
X102098415Y-84189694D01*
X102074544Y-84203705D01*
X102047269Y-84215849D01*
X102047265Y-84215851D01*
X101894129Y-84327111D01*
X101767466Y-84467785D01*
X101672821Y-84631715D01*
X101672818Y-84631722D01*
X101614327Y-84811740D01*
X101614326Y-84811744D01*
X101594540Y-85000000D01*
X101614326Y-85188256D01*
X101614327Y-85188259D01*
X101672818Y-85368277D01*
X101672821Y-85368284D01*
X101767467Y-85532216D01*
X101871480Y-85647734D01*
X101894129Y-85672888D01*
X102047265Y-85784148D01*
X102047270Y-85784151D01*
X102220192Y-85861142D01*
X102220197Y-85861144D01*
X102405354Y-85900500D01*
X102464548Y-85900500D01*
X102531587Y-85920185D01*
X102552229Y-85936819D01*
X107338181Y-90722771D01*
X107371666Y-90784094D01*
X107374500Y-90810452D01*
X107374500Y-91917255D01*
X107372775Y-91932872D01*
X107373061Y-91932899D01*
X107372326Y-91940665D01*
X107374500Y-92009814D01*
X107374500Y-92039343D01*
X107374501Y-92039360D01*
X107375368Y-92046231D01*
X107375826Y-92052050D01*
X107377290Y-92098624D01*
X107377291Y-92098627D01*
X107382880Y-92117867D01*
X107386824Y-92136911D01*
X107389336Y-92156792D01*
X107393973Y-92168504D01*
X107406490Y-92200119D01*
X107408382Y-92205647D01*
X107421298Y-92250103D01*
X107421382Y-92250390D01*
X107421624Y-92250800D01*
X107431580Y-92267634D01*
X107440136Y-92285100D01*
X107447514Y-92303732D01*
X107472287Y-92337830D01*
X107474898Y-92341423D01*
X107478106Y-92346307D01*
X107501827Y-92386416D01*
X107501833Y-92386424D01*
X107515990Y-92400580D01*
X107528628Y-92415376D01*
X107540405Y-92431586D01*
X107540406Y-92431587D01*
X107576309Y-92461288D01*
X107580620Y-92465210D01*
X108025457Y-92910048D01*
X108114197Y-92998788D01*
X108124022Y-93011051D01*
X108124243Y-93010869D01*
X108129214Y-93016878D01*
X108155217Y-93041295D01*
X108179635Y-93064226D01*
X108200529Y-93085120D01*
X108206011Y-93089373D01*
X108210443Y-93093157D01*
X108244418Y-93125062D01*
X108261976Y-93134714D01*
X108278235Y-93145395D01*
X108294064Y-93157673D01*
X108336838Y-93176182D01*
X108342056Y-93178738D01*
X108382908Y-93201197D01*
X108402316Y-93206180D01*
X108420717Y-93212480D01*
X108439104Y-93220437D01*
X108482488Y-93227308D01*
X108485119Y-93227725D01*
X108490839Y-93228909D01*
X108535981Y-93240500D01*
X108556016Y-93240500D01*
X108575414Y-93242026D01*
X108595194Y-93245159D01*
X108595195Y-93245160D01*
X108595195Y-93245159D01*
X108595196Y-93245160D01*
X108641584Y-93240775D01*
X108647422Y-93240500D01*
X108985812Y-93240500D01*
X109052851Y-93260185D01*
X109087387Y-93293377D01*
X109199954Y-93454141D01*
X109360858Y-93615045D01*
X109360861Y-93615047D01*
X109547266Y-93745568D01*
X109753504Y-93841739D01*
X109973308Y-93900635D01*
X110130791Y-93914413D01*
X110199998Y-93920468D01*
X110200000Y-93920468D01*
X110200002Y-93920468D01*
X110256673Y-93915509D01*
X110426692Y-93900635D01*
X110495048Y-93882319D01*
X110564897Y-93883982D01*
X110614822Y-93914413D01*
X110824197Y-94123788D01*
X110834022Y-94136051D01*
X110834243Y-94135869D01*
X110839214Y-94141878D01*
X110860043Y-94161437D01*
X110889635Y-94189226D01*
X110910529Y-94210120D01*
X110916011Y-94214373D01*
X110920443Y-94218157D01*
X110954418Y-94250062D01*
X110971976Y-94259714D01*
X110988235Y-94270395D01*
X111004064Y-94282673D01*
X111046838Y-94301182D01*
X111052056Y-94303738D01*
X111092908Y-94326197D01*
X111112316Y-94331180D01*
X111130717Y-94337480D01*
X111149104Y-94345437D01*
X111192488Y-94352308D01*
X111195119Y-94352725D01*
X111200839Y-94353909D01*
X111245981Y-94365500D01*
X111266016Y-94365500D01*
X111285414Y-94367026D01*
X111305194Y-94370159D01*
X111305195Y-94370160D01*
X111305195Y-94370159D01*
X111305196Y-94370160D01*
X111351584Y-94365775D01*
X111357422Y-94365500D01*
X132177257Y-94365500D01*
X132192877Y-94367224D01*
X132192904Y-94366939D01*
X132200660Y-94367671D01*
X132200667Y-94367673D01*
X132269814Y-94365500D01*
X132299350Y-94365500D01*
X132306228Y-94364630D01*
X132312041Y-94364172D01*
X132358627Y-94362709D01*
X132377869Y-94357117D01*
X132396912Y-94353174D01*
X132416792Y-94350664D01*
X132460122Y-94333507D01*
X132465646Y-94331617D01*
X132469396Y-94330527D01*
X132510390Y-94318618D01*
X132527629Y-94308422D01*
X132545103Y-94299862D01*
X132563727Y-94292488D01*
X132563727Y-94292487D01*
X132563732Y-94292486D01*
X132601449Y-94265082D01*
X132606305Y-94261892D01*
X132646420Y-94238170D01*
X132660589Y-94223999D01*
X132675379Y-94211368D01*
X132691587Y-94199594D01*
X132721299Y-94163676D01*
X132725212Y-94159376D01*
X145558788Y-81325801D01*
X145571042Y-81315986D01*
X145570859Y-81315764D01*
X145576866Y-81310792D01*
X145576877Y-81310786D01*
X145607775Y-81277882D01*
X145624227Y-81260364D01*
X145645108Y-81239483D01*
X145645108Y-81239482D01*
X145645120Y-81239471D01*
X145645130Y-81239457D01*
X145647034Y-81237299D01*
X145647735Y-81236856D01*
X145647877Y-81236715D01*
X145647909Y-81236747D01*
X145706131Y-81200025D01*
X145775998Y-81200617D01*
X145811179Y-81217720D01*
X145862417Y-81253598D01*
X145862421Y-81253600D01*
X146076507Y-81353429D01*
X146076516Y-81353433D01*
X146290000Y-81410634D01*
X146290000Y-80515501D01*
X146397685Y-80564680D01*
X146504237Y-80580000D01*
X146575763Y-80580000D01*
X146682315Y-80564680D01*
X146790000Y-80515501D01*
X146790000Y-81410633D01*
X147003483Y-81353433D01*
X147003492Y-81353429D01*
X147217578Y-81253600D01*
X147411082Y-81118105D01*
X147578105Y-80951082D01*
X147713600Y-80757578D01*
X147813429Y-80543492D01*
X147813432Y-80543486D01*
X147870636Y-80330000D01*
X146973686Y-80330000D01*
X146999493Y-80289844D01*
X147040000Y-80151889D01*
X147040000Y-80008111D01*
X146999493Y-79870156D01*
X146973686Y-79830000D01*
X147870636Y-79830000D01*
X147870635Y-79829999D01*
X147813432Y-79616513D01*
X147813429Y-79616507D01*
X147713600Y-79402422D01*
X147713599Y-79402420D01*
X147578113Y-79208926D01*
X147578108Y-79208920D01*
X147411078Y-79041890D01*
X147225405Y-78911879D01*
X147181780Y-78857302D01*
X147174588Y-78787804D01*
X147206110Y-78725449D01*
X147225406Y-78708730D01*
X147411401Y-78578495D01*
X147578495Y-78411401D01*
X147714035Y-78217830D01*
X147813903Y-78003663D01*
X147875063Y-77775408D01*
X147895659Y-77540000D01*
X147875063Y-77304592D01*
X147813903Y-77076337D01*
X147714035Y-76862171D01*
X147708425Y-76854158D01*
X147578494Y-76668597D01*
X147411402Y-76501506D01*
X147411396Y-76501501D01*
X147225842Y-76371575D01*
X147182217Y-76316998D01*
X147175023Y-76247500D01*
X147206546Y-76185145D01*
X147225842Y-76168425D01*
X147329094Y-76096127D01*
X147411401Y-76038495D01*
X147578495Y-75871401D01*
X147714035Y-75677830D01*
X147813903Y-75463663D01*
X147875063Y-75235408D01*
X147895659Y-75000000D01*
X147875063Y-74764592D01*
X147813903Y-74536337D01*
X147714035Y-74322171D01*
X147578495Y-74128599D01*
X147578494Y-74128597D01*
X147411402Y-73961506D01*
X147411395Y-73961501D01*
X147217834Y-73825967D01*
X147217830Y-73825965D01*
X147217828Y-73825964D01*
X147003663Y-73726097D01*
X147003659Y-73726096D01*
X147003655Y-73726094D01*
X146775413Y-73664938D01*
X146775403Y-73664936D01*
X146540001Y-73644341D01*
X146539999Y-73644341D01*
X146304596Y-73664936D01*
X146304586Y-73664938D01*
X146076344Y-73726094D01*
X146076335Y-73726098D01*
X145862171Y-73825964D01*
X145862169Y-73825965D01*
X145668600Y-73961503D01*
X145546673Y-74083430D01*
X145485350Y-74116914D01*
X145415658Y-74111930D01*
X145359725Y-74070058D01*
X145342810Y-74039081D01*
X145293797Y-73907671D01*
X145293793Y-73907664D01*
X145207547Y-73792455D01*
X145207544Y-73792452D01*
X145092335Y-73706206D01*
X145092328Y-73706202D01*
X144957482Y-73655908D01*
X144957483Y-73655908D01*
X144897883Y-73649501D01*
X144897881Y-73649500D01*
X144897873Y-73649500D01*
X144897864Y-73649500D01*
X143102129Y-73649500D01*
X143102123Y-73649501D01*
X143042516Y-73655908D01*
X142907671Y-73706202D01*
X142907664Y-73706206D01*
X142792455Y-73792452D01*
X142792452Y-73792455D01*
X142706206Y-73907664D01*
X142706202Y-73907671D01*
X142655908Y-74042517D01*
X142649501Y-74102116D01*
X142649500Y-74102135D01*
X142649500Y-74250500D01*
X142629815Y-74317539D01*
X142577011Y-74363294D01*
X142525500Y-74374500D01*
X135517743Y-74374500D01*
X135502122Y-74372775D01*
X135502096Y-74373061D01*
X135494334Y-74372327D01*
X135494333Y-74372327D01*
X135425186Y-74374500D01*
X135395649Y-74374500D01*
X135388766Y-74375369D01*
X135382949Y-74375826D01*
X135336373Y-74377290D01*
X135317129Y-74382881D01*
X135298079Y-74386825D01*
X135278211Y-74389334D01*
X135234884Y-74406488D01*
X135229358Y-74408379D01*
X135184614Y-74421379D01*
X135184610Y-74421381D01*
X135167366Y-74431579D01*
X135149905Y-74440133D01*
X135131274Y-74447510D01*
X135131262Y-74447517D01*
X135093570Y-74474902D01*
X135088687Y-74478109D01*
X135048580Y-74501829D01*
X135034414Y-74515995D01*
X135019624Y-74528627D01*
X135003414Y-74540404D01*
X135003411Y-74540407D01*
X134973710Y-74576309D01*
X134969777Y-74580631D01*
X119332818Y-90217589D01*
X119271495Y-90251074D01*
X119201803Y-90246090D01*
X119145870Y-90204218D01*
X119121453Y-90138754D01*
X119121608Y-90119109D01*
X119125468Y-90075000D01*
X119105635Y-89848308D01*
X119046739Y-89628504D01*
X118950568Y-89422266D01*
X118820047Y-89235861D01*
X118820045Y-89235858D01*
X118659141Y-89074954D01*
X118472734Y-88944432D01*
X118472728Y-88944429D01*
X118414725Y-88917382D01*
X118362285Y-88871210D01*
X118343133Y-88804017D01*
X118363348Y-88737135D01*
X118414725Y-88692618D01*
X118472734Y-88665568D01*
X118659139Y-88535047D01*
X118820047Y-88374139D01*
X118950568Y-88187734D01*
X119046739Y-87981496D01*
X119105635Y-87761692D01*
X119125468Y-87535000D01*
X119105635Y-87308308D01*
X119046739Y-87088504D01*
X118950568Y-86882266D01*
X118820047Y-86695861D01*
X118820045Y-86695858D01*
X118659141Y-86534954D01*
X118472734Y-86404432D01*
X118472728Y-86404429D01*
X118414725Y-86377382D01*
X118362285Y-86331210D01*
X118343133Y-86264017D01*
X118363348Y-86197135D01*
X118414725Y-86152618D01*
X118472734Y-86125568D01*
X118659139Y-85995047D01*
X118820047Y-85834139D01*
X118950568Y-85647734D01*
X119046739Y-85441496D01*
X119105635Y-85221692D01*
X119125468Y-84995000D01*
X119105635Y-84768308D01*
X119046739Y-84548504D01*
X118950568Y-84342266D01*
X118820047Y-84155861D01*
X118820045Y-84155858D01*
X118659141Y-83994954D01*
X118472734Y-83864432D01*
X118472728Y-83864429D01*
X118414725Y-83837382D01*
X118362285Y-83791210D01*
X118343133Y-83724017D01*
X118363348Y-83657135D01*
X118414725Y-83612618D01*
X118472734Y-83585568D01*
X118659139Y-83455047D01*
X118820047Y-83294139D01*
X118950568Y-83107734D01*
X119046739Y-82901496D01*
X119105635Y-82681692D01*
X119122634Y-82487384D01*
X119125468Y-82455001D01*
X119125468Y-82454998D01*
X119118154Y-82371401D01*
X119105635Y-82228308D01*
X119046739Y-82008504D01*
X118950568Y-81802266D01*
X118820047Y-81615861D01*
X118820045Y-81615858D01*
X118659141Y-81454954D01*
X118472734Y-81324432D01*
X118472728Y-81324429D01*
X118414725Y-81297382D01*
X118362285Y-81251210D01*
X118343133Y-81184017D01*
X118363348Y-81117135D01*
X118414725Y-81072618D01*
X118472734Y-81045568D01*
X118659139Y-80915047D01*
X118820047Y-80754139D01*
X118950568Y-80567734D01*
X119046739Y-80361496D01*
X119105635Y-80141692D01*
X119125468Y-79915000D01*
X119105635Y-79688308D01*
X119046739Y-79468504D01*
X118950568Y-79262266D01*
X118820047Y-79075861D01*
X118820045Y-79075858D01*
X118659141Y-78914954D01*
X118472734Y-78784432D01*
X118472732Y-78784431D01*
X118436091Y-78767345D01*
X118414132Y-78757105D01*
X118361694Y-78710934D01*
X118342542Y-78643740D01*
X118362758Y-78576859D01*
X118414134Y-78532341D01*
X118472484Y-78505132D01*
X118658820Y-78374657D01*
X118819657Y-78213820D01*
X118950134Y-78027482D01*
X119046265Y-77821326D01*
X119046269Y-77821317D01*
X119098872Y-77625000D01*
X118135686Y-77625000D01*
X118147641Y-77613045D01*
X118205165Y-77500148D01*
X118224986Y-77375000D01*
X118205165Y-77249852D01*
X118147641Y-77136955D01*
X118135686Y-77125000D01*
X119098872Y-77125000D01*
X119098872Y-77124999D01*
X119046269Y-76928682D01*
X119046265Y-76928673D01*
X118950134Y-76722517D01*
X118819657Y-76536179D01*
X118658820Y-76375342D01*
X118472482Y-76244865D01*
X118266328Y-76148734D01*
X118070000Y-76096127D01*
X118070000Y-77059314D01*
X118058045Y-77047359D01*
X117945148Y-76989835D01*
X117851481Y-76975000D01*
X117788519Y-76975000D01*
X117694852Y-76989835D01*
X117581955Y-77047359D01*
X117570000Y-77059314D01*
X117570000Y-76096127D01*
X117373671Y-76148734D01*
X117167517Y-76244865D01*
X116981179Y-76375342D01*
X116820342Y-76536179D01*
X116689865Y-76722517D01*
X116593734Y-76928673D01*
X116593730Y-76928682D01*
X116541127Y-77124999D01*
X116541128Y-77125000D01*
X117504314Y-77125000D01*
X117492359Y-77136955D01*
X117434835Y-77249852D01*
X117415014Y-77375000D01*
X117434835Y-77500148D01*
X117492359Y-77613045D01*
X117504314Y-77625000D01*
X116541128Y-77625000D01*
X116593730Y-77821317D01*
X116593734Y-77821326D01*
X116689865Y-78027482D01*
X116820342Y-78213820D01*
X116981179Y-78374657D01*
X117167518Y-78505134D01*
X117167520Y-78505135D01*
X117225865Y-78532342D01*
X117278305Y-78578514D01*
X117297457Y-78645707D01*
X117277242Y-78712589D01*
X117225867Y-78757105D01*
X117203909Y-78767345D01*
X117167264Y-78784433D01*
X116980858Y-78914954D01*
X116819954Y-79075858D01*
X116689432Y-79262265D01*
X116689431Y-79262267D01*
X116593261Y-79468502D01*
X116593258Y-79468511D01*
X116534366Y-79688302D01*
X116534364Y-79688313D01*
X116514532Y-79914998D01*
X116514532Y-79915001D01*
X116534364Y-80141686D01*
X116534366Y-80141697D01*
X116593258Y-80361488D01*
X116593261Y-80361497D01*
X116689431Y-80567732D01*
X116689432Y-80567734D01*
X116819954Y-80754141D01*
X116980858Y-80915045D01*
X116980861Y-80915047D01*
X117167266Y-81045568D01*
X117225275Y-81072618D01*
X117277714Y-81118791D01*
X117296866Y-81185984D01*
X117276650Y-81252865D01*
X117225275Y-81297382D01*
X117167267Y-81324431D01*
X117167265Y-81324432D01*
X116980858Y-81454954D01*
X116819954Y-81615858D01*
X116689432Y-81802265D01*
X116689431Y-81802267D01*
X116593261Y-82008502D01*
X116593258Y-82008511D01*
X116534366Y-82228302D01*
X116534364Y-82228313D01*
X116514532Y-82454998D01*
X116514532Y-82455001D01*
X116534364Y-82681686D01*
X116534366Y-82681697D01*
X116593258Y-82901488D01*
X116593261Y-82901497D01*
X116689431Y-83107732D01*
X116689432Y-83107734D01*
X116819954Y-83294141D01*
X116980858Y-83455045D01*
X116980861Y-83455047D01*
X117167266Y-83585568D01*
X117225275Y-83612618D01*
X117277714Y-83658791D01*
X117296866Y-83725984D01*
X117276650Y-83792865D01*
X117225275Y-83837382D01*
X117167267Y-83864431D01*
X117167265Y-83864432D01*
X116980858Y-83994954D01*
X116819954Y-84155858D01*
X116689432Y-84342265D01*
X116689431Y-84342267D01*
X116593261Y-84548502D01*
X116593258Y-84548511D01*
X116534366Y-84768302D01*
X116534364Y-84768313D01*
X116514532Y-84994998D01*
X116514532Y-84995001D01*
X116534364Y-85221686D01*
X116534366Y-85221697D01*
X116593258Y-85441488D01*
X116593261Y-85441497D01*
X116689431Y-85647732D01*
X116689432Y-85647734D01*
X116819954Y-85834141D01*
X116980858Y-85995045D01*
X116980861Y-85995047D01*
X117167266Y-86125568D01*
X117225275Y-86152618D01*
X117277714Y-86198791D01*
X117296866Y-86265984D01*
X117276650Y-86332865D01*
X117225275Y-86377382D01*
X117167267Y-86404431D01*
X117167265Y-86404432D01*
X116980858Y-86534954D01*
X116819954Y-86695858D01*
X116689432Y-86882265D01*
X116689431Y-86882267D01*
X116593261Y-87088502D01*
X116593258Y-87088511D01*
X116534366Y-87308302D01*
X116534364Y-87308313D01*
X116514532Y-87534998D01*
X116514532Y-87535001D01*
X116534364Y-87761686D01*
X116534366Y-87761697D01*
X116593258Y-87981488D01*
X116593261Y-87981497D01*
X116689431Y-88187732D01*
X116689432Y-88187734D01*
X116819954Y-88374141D01*
X116980858Y-88535045D01*
X117008120Y-88554134D01*
X117167266Y-88665568D01*
X117225275Y-88692618D01*
X117277714Y-88738791D01*
X117296866Y-88805984D01*
X117276650Y-88872865D01*
X117225275Y-88917382D01*
X117167267Y-88944431D01*
X117167265Y-88944432D01*
X116980858Y-89074954D01*
X116819954Y-89235858D01*
X116707387Y-89396623D01*
X116652811Y-89440248D01*
X116605812Y-89449500D01*
X115385453Y-89449500D01*
X115318414Y-89429815D01*
X115297772Y-89413181D01*
X114450803Y-88566212D01*
X114440980Y-88553950D01*
X114440759Y-88554134D01*
X114435786Y-88548123D01*
X114385364Y-88500773D01*
X114374919Y-88490328D01*
X114364475Y-88479883D01*
X114358986Y-88475625D01*
X114354561Y-88471847D01*
X114320582Y-88439938D01*
X114320580Y-88439936D01*
X114320577Y-88439935D01*
X114303029Y-88430288D01*
X114286763Y-88419604D01*
X114270933Y-88407325D01*
X114228168Y-88388818D01*
X114222922Y-88386248D01*
X114182093Y-88363803D01*
X114182092Y-88363802D01*
X114162693Y-88358822D01*
X114144281Y-88352518D01*
X114125898Y-88344562D01*
X114125892Y-88344560D01*
X114079874Y-88337272D01*
X114074152Y-88336087D01*
X114029021Y-88324500D01*
X114029019Y-88324500D01*
X114008984Y-88324500D01*
X113989586Y-88322973D01*
X113982162Y-88321797D01*
X113969805Y-88319840D01*
X113969804Y-88319840D01*
X113923416Y-88324225D01*
X113917578Y-88324500D01*
X111461434Y-88324500D01*
X111394395Y-88304815D01*
X111348640Y-88252011D01*
X111338696Y-88182853D01*
X111349052Y-88148095D01*
X111380103Y-88081506D01*
X111426739Y-87981496D01*
X111485635Y-87761692D01*
X111505468Y-87535000D01*
X111485635Y-87308308D01*
X111426739Y-87088504D01*
X111330568Y-86882266D01*
X111200047Y-86695861D01*
X111200045Y-86695858D01*
X111039141Y-86534954D01*
X110852734Y-86404432D01*
X110852728Y-86404429D01*
X110794725Y-86377382D01*
X110742285Y-86331210D01*
X110723133Y-86264017D01*
X110743348Y-86197135D01*
X110794725Y-86152618D01*
X110852734Y-86125568D01*
X111039139Y-85995047D01*
X111200047Y-85834139D01*
X111330568Y-85647734D01*
X111426739Y-85441496D01*
X111485635Y-85221692D01*
X111505468Y-84995000D01*
X111485635Y-84768308D01*
X111426739Y-84548504D01*
X111330568Y-84342266D01*
X111200047Y-84155861D01*
X111200045Y-84155858D01*
X111039141Y-83994954D01*
X110852734Y-83864432D01*
X110852728Y-83864429D01*
X110794725Y-83837382D01*
X110742285Y-83791210D01*
X110723133Y-83724017D01*
X110743348Y-83657135D01*
X110794725Y-83612618D01*
X110852734Y-83585568D01*
X111039139Y-83455047D01*
X111200047Y-83294139D01*
X111330568Y-83107734D01*
X111426739Y-82901496D01*
X111485635Y-82681692D01*
X111502634Y-82487384D01*
X111505468Y-82455001D01*
X111505468Y-82454998D01*
X111498154Y-82371401D01*
X111485635Y-82228308D01*
X111426739Y-82008504D01*
X111330568Y-81802266D01*
X111200047Y-81615861D01*
X111200045Y-81615858D01*
X111039141Y-81454954D01*
X110852734Y-81324432D01*
X110852728Y-81324429D01*
X110794725Y-81297382D01*
X110742285Y-81251210D01*
X110723133Y-81184017D01*
X110743348Y-81117135D01*
X110794725Y-81072618D01*
X110852734Y-81045568D01*
X111039139Y-80915047D01*
X111200047Y-80754139D01*
X111330568Y-80567734D01*
X111426739Y-80361496D01*
X111485635Y-80141692D01*
X111505468Y-79915000D01*
X111485635Y-79688308D01*
X111426739Y-79468504D01*
X111330568Y-79262266D01*
X111200047Y-79075861D01*
X111200045Y-79075858D01*
X111039143Y-78914956D01*
X111014536Y-78897726D01*
X110970912Y-78843149D01*
X110963719Y-78773650D01*
X110995241Y-78711296D01*
X111055471Y-78675882D01*
X111072404Y-78672861D01*
X111107483Y-78669091D01*
X111242331Y-78618796D01*
X111357546Y-78532546D01*
X111443796Y-78417331D01*
X111494091Y-78282483D01*
X111500500Y-78222873D01*
X111500499Y-76527128D01*
X111494091Y-76467517D01*
X111474749Y-76415659D01*
X111443797Y-76332671D01*
X111443793Y-76332664D01*
X111357547Y-76217455D01*
X111357544Y-76217452D01*
X111242335Y-76131206D01*
X111242328Y-76131202D01*
X111107482Y-76080908D01*
X111107483Y-76080908D01*
X111047883Y-76074501D01*
X111047881Y-76074500D01*
X111047873Y-76074500D01*
X111047864Y-76074500D01*
X109352129Y-76074500D01*
X109352123Y-76074501D01*
X109292516Y-76080908D01*
X109157671Y-76131202D01*
X109157664Y-76131206D01*
X109042455Y-76217452D01*
X109042452Y-76217455D01*
X108956206Y-76332664D01*
X108956202Y-76332671D01*
X108905908Y-76467517D01*
X108900436Y-76518418D01*
X108899501Y-76527123D01*
X108899500Y-76527135D01*
X108899500Y-78222870D01*
X108899501Y-78222876D01*
X108905908Y-78282483D01*
X108956202Y-78417328D01*
X108956206Y-78417335D01*
X109042452Y-78532544D01*
X109042455Y-78532547D01*
X109157664Y-78618793D01*
X109157671Y-78618797D01*
X109185569Y-78629202D01*
X109292517Y-78669091D01*
X109327596Y-78672862D01*
X109392144Y-78699599D01*
X109431993Y-78756991D01*
X109434488Y-78826816D01*
X109398836Y-78886905D01*
X109385464Y-78897725D01*
X109360858Y-78914954D01*
X109199954Y-79075858D01*
X109069432Y-79262265D01*
X109069431Y-79262267D01*
X108973261Y-79468502D01*
X108973258Y-79468511D01*
X108914366Y-79688302D01*
X108914364Y-79688313D01*
X108894532Y-79914998D01*
X108894532Y-79915001D01*
X108914364Y-80141686D01*
X108914366Y-80141697D01*
X108973258Y-80361488D01*
X108973261Y-80361497D01*
X109069431Y-80567732D01*
X109069432Y-80567734D01*
X109199954Y-80754141D01*
X109360858Y-80915045D01*
X109360861Y-80915047D01*
X109547266Y-81045568D01*
X109605275Y-81072618D01*
X109657714Y-81118791D01*
X109676866Y-81185984D01*
X109656650Y-81252865D01*
X109605275Y-81297382D01*
X109547267Y-81324431D01*
X109547265Y-81324432D01*
X109360858Y-81454954D01*
X109199954Y-81615858D01*
X109069432Y-81802265D01*
X109069431Y-81802267D01*
X108973261Y-82008502D01*
X108973258Y-82008511D01*
X108914366Y-82228302D01*
X108914364Y-82228313D01*
X108894532Y-82454998D01*
X108894532Y-82455001D01*
X108914364Y-82681686D01*
X108914366Y-82681697D01*
X108973258Y-82901488D01*
X108973261Y-82901497D01*
X109069431Y-83107732D01*
X109069432Y-83107734D01*
X109199954Y-83294141D01*
X109360858Y-83455045D01*
X109360861Y-83455047D01*
X109547266Y-83585568D01*
X109605275Y-83612618D01*
X109657714Y-83658791D01*
X109676866Y-83725984D01*
X109656650Y-83792865D01*
X109605275Y-83837382D01*
X109547267Y-83864431D01*
X109547265Y-83864432D01*
X109360858Y-83994954D01*
X109199954Y-84155858D01*
X109069432Y-84342265D01*
X109069431Y-84342267D01*
X108973261Y-84548502D01*
X108973258Y-84548511D01*
X108914366Y-84768302D01*
X108914364Y-84768313D01*
X108894532Y-84994998D01*
X108894532Y-84995001D01*
X108914364Y-85221686D01*
X108914366Y-85221697D01*
X108973258Y-85441488D01*
X108973261Y-85441497D01*
X109069431Y-85647732D01*
X109069432Y-85647734D01*
X109199954Y-85834141D01*
X109360858Y-85995045D01*
X109360861Y-85995047D01*
X109547266Y-86125568D01*
X109605275Y-86152618D01*
X109657714Y-86198791D01*
X109676866Y-86265984D01*
X109656650Y-86332865D01*
X109605275Y-86377382D01*
X109547267Y-86404431D01*
X109547265Y-86404432D01*
X109360858Y-86534954D01*
X109199954Y-86695858D01*
X109069432Y-86882265D01*
X109069431Y-86882267D01*
X108973261Y-87088502D01*
X108973259Y-87088508D01*
X108923151Y-87275517D01*
X108886786Y-87335177D01*
X108823939Y-87365706D01*
X108754563Y-87357411D01*
X108715695Y-87331104D01*
X103438960Y-82054369D01*
X103405475Y-81993046D01*
X103403323Y-81979668D01*
X103385674Y-81811744D01*
X103327179Y-81631716D01*
X103232533Y-81467784D01*
X103105871Y-81327112D01*
X103105870Y-81327111D01*
X102952734Y-81215851D01*
X102952729Y-81215848D01*
X102779807Y-81138857D01*
X102779802Y-81138855D01*
X102634001Y-81107865D01*
X102594646Y-81099500D01*
X102405354Y-81099500D01*
X102372897Y-81106398D01*
X102220197Y-81138855D01*
X102220192Y-81138857D01*
X102047270Y-81215848D01*
X102047265Y-81215851D01*
X101894129Y-81327111D01*
X101894128Y-81327112D01*
X101841649Y-81385396D01*
X101782162Y-81422044D01*
X101712305Y-81420713D01*
X101654257Y-81381826D01*
X101626448Y-81317729D01*
X101625500Y-81302423D01*
X101625500Y-73698687D01*
X101645185Y-73631648D01*
X101657350Y-73615715D01*
X101675891Y-73595122D01*
X101732533Y-73532216D01*
X101827179Y-73368284D01*
X101885674Y-73188256D01*
X101905460Y-73000000D01*
X101885674Y-72811744D01*
X101827179Y-72631716D01*
X101732533Y-72467784D01*
X101605871Y-72327112D01*
X101605870Y-72327111D01*
X101452734Y-72215851D01*
X101452729Y-72215848D01*
X101279807Y-72138857D01*
X101279802Y-72138855D01*
X101134001Y-72107865D01*
X101094646Y-72099500D01*
X100905354Y-72099500D01*
X100872897Y-72106398D01*
X100720197Y-72138855D01*
X100720192Y-72138857D01*
X100547270Y-72215848D01*
X100547265Y-72215851D01*
X100394129Y-72327111D01*
X100267466Y-72467785D01*
X100172821Y-72631715D01*
X100172818Y-72631722D01*
X100114327Y-72811740D01*
X100114326Y-72811744D01*
X100094540Y-73000000D01*
X69200500Y-73000000D01*
X69200500Y-59000000D01*
X146094540Y-59000000D01*
X146114326Y-59188256D01*
X146114327Y-59188259D01*
X146172818Y-59368277D01*
X146172821Y-59368284D01*
X146267467Y-59532216D01*
X146369185Y-59645185D01*
X146394129Y-59672888D01*
X146547265Y-59784148D01*
X146547270Y-59784151D01*
X146720192Y-59861142D01*
X146720197Y-59861144D01*
X146905354Y-59900500D01*
X146905355Y-59900500D01*
X147094644Y-59900500D01*
X147094646Y-59900500D01*
X147279803Y-59861144D01*
X147452730Y-59784151D01*
X147605871Y-59672888D01*
X147608788Y-59669647D01*
X147611600Y-59666526D01*
X147671087Y-59629879D01*
X147703748Y-59625500D01*
X152296252Y-59625500D01*
X152363291Y-59645185D01*
X152388400Y-59666526D01*
X152394126Y-59672885D01*
X152394130Y-59672889D01*
X152547265Y-59784148D01*
X152547270Y-59784151D01*
X152720192Y-59861142D01*
X152720197Y-59861144D01*
X152905354Y-59900500D01*
X152905355Y-59900500D01*
X153094644Y-59900500D01*
X153094646Y-59900500D01*
X153279803Y-59861144D01*
X153452730Y-59784151D01*
X153605871Y-59672888D01*
X153732533Y-59532216D01*
X153827179Y-59368284D01*
X153885674Y-59188256D01*
X153905460Y-59000000D01*
X153885674Y-58811744D01*
X153827179Y-58631716D01*
X153732533Y-58467784D01*
X153605871Y-58327112D01*
X153605870Y-58327111D01*
X153452734Y-58215851D01*
X153452729Y-58215848D01*
X153279807Y-58138857D01*
X153279802Y-58138855D01*
X153134001Y-58107865D01*
X153094646Y-58099500D01*
X152905354Y-58099500D01*
X152872897Y-58106398D01*
X152720197Y-58138855D01*
X152720192Y-58138857D01*
X152547270Y-58215848D01*
X152547265Y-58215851D01*
X152394130Y-58327110D01*
X152394126Y-58327114D01*
X152388400Y-58333474D01*
X152328913Y-58370121D01*
X152296252Y-58374500D01*
X147703748Y-58374500D01*
X147636709Y-58354815D01*
X147611600Y-58333474D01*
X147605873Y-58327114D01*
X147605869Y-58327110D01*
X147452734Y-58215851D01*
X147452729Y-58215848D01*
X147279807Y-58138857D01*
X147279802Y-58138855D01*
X147134001Y-58107865D01*
X147094646Y-58099500D01*
X146905354Y-58099500D01*
X146872897Y-58106398D01*
X146720197Y-58138855D01*
X146720192Y-58138857D01*
X146547270Y-58215848D01*
X146547265Y-58215851D01*
X146394129Y-58327111D01*
X146267466Y-58467785D01*
X146172821Y-58631715D01*
X146172818Y-58631722D01*
X146114327Y-58811740D01*
X146114326Y-58811744D01*
X146094540Y-59000000D01*
X69200500Y-59000000D01*
X69200500Y-45067909D01*
X72141779Y-45067909D01*
X72171468Y-45337735D01*
X72171470Y-45337748D01*
X72206127Y-45470315D01*
X72240132Y-45600384D01*
X72346303Y-45850224D01*
X72418588Y-45968668D01*
X72487716Y-46081940D01*
X72487717Y-46081942D01*
X72487719Y-46081944D01*
X72661368Y-46290604D01*
X72863546Y-46471757D01*
X73089947Y-46621542D01*
X73335743Y-46736767D01*
X73595697Y-46814975D01*
X73864268Y-46854500D01*
X73864273Y-46854500D01*
X74067786Y-46854500D01*
X74119394Y-46850722D01*
X74270740Y-46839645D01*
X74381488Y-46814975D01*
X74535702Y-46780623D01*
X74535704Y-46780622D01*
X74535709Y-46780621D01*
X74789261Y-46683646D01*
X75025991Y-46550786D01*
X75240853Y-46384875D01*
X75429269Y-46189447D01*
X75587223Y-45968668D01*
X75711348Y-45727244D01*
X75798998Y-45470320D01*
X75848306Y-45203371D01*
X75853256Y-45067909D01*
X152141779Y-45067909D01*
X152171468Y-45337735D01*
X152171470Y-45337748D01*
X152206127Y-45470315D01*
X152240132Y-45600384D01*
X152346303Y-45850224D01*
X152418588Y-45968668D01*
X152487716Y-46081940D01*
X152487717Y-46081942D01*
X152487719Y-46081944D01*
X152661368Y-46290604D01*
X152863546Y-46471757D01*
X153089947Y-46621542D01*
X153335743Y-46736767D01*
X153595697Y-46814975D01*
X153864268Y-46854500D01*
X153864273Y-46854500D01*
X154067786Y-46854500D01*
X154119394Y-46850722D01*
X154270740Y-46839645D01*
X154381488Y-46814975D01*
X154535702Y-46780623D01*
X154535704Y-46780622D01*
X154535709Y-46780621D01*
X154789261Y-46683646D01*
X155025991Y-46550786D01*
X155240853Y-46384875D01*
X155429269Y-46189447D01*
X155587223Y-45968668D01*
X155711348Y-45727244D01*
X155798998Y-45470320D01*
X155848306Y-45203371D01*
X155858220Y-44932089D01*
X155828530Y-44662253D01*
X155759868Y-44399616D01*
X155653697Y-44149776D01*
X155532740Y-43951580D01*
X155512283Y-43918059D01*
X155512282Y-43918057D01*
X155422814Y-43810551D01*
X155338632Y-43709396D01*
X155136454Y-43528243D01*
X154910053Y-43378458D01*
X154664257Y-43263233D01*
X154404303Y-43185025D01*
X154404301Y-43185024D01*
X154404299Y-43185024D01*
X154307999Y-43170852D01*
X154135732Y-43145500D01*
X153932219Y-43145500D01*
X153932214Y-43145500D01*
X153729260Y-43160355D01*
X153729246Y-43160357D01*
X153464297Y-43219376D01*
X153464290Y-43219379D01*
X153210736Y-43316355D01*
X152974012Y-43449211D01*
X152759140Y-43615130D01*
X152759139Y-43615132D01*
X152570734Y-43810549D01*
X152570732Y-43810551D01*
X152412778Y-44031329D01*
X152288656Y-44272746D01*
X152288649Y-44272762D01*
X152201005Y-44529666D01*
X152201001Y-44529684D01*
X152151693Y-44796631D01*
X152151693Y-44796633D01*
X152141779Y-45067909D01*
X75853256Y-45067909D01*
X75858220Y-44932089D01*
X75828530Y-44662253D01*
X75759868Y-44399616D01*
X75653697Y-44149776D01*
X75532740Y-43951580D01*
X75512283Y-43918059D01*
X75512282Y-43918057D01*
X75422814Y-43810551D01*
X75338632Y-43709396D01*
X75136454Y-43528243D01*
X74910053Y-43378458D01*
X74664257Y-43263233D01*
X74404303Y-43185025D01*
X74404301Y-43185024D01*
X74404299Y-43185024D01*
X74307999Y-43170852D01*
X74135732Y-43145500D01*
X73932219Y-43145500D01*
X73932214Y-43145500D01*
X73729260Y-43160355D01*
X73729246Y-43160357D01*
X73464297Y-43219376D01*
X73464290Y-43219379D01*
X73210736Y-43316355D01*
X72974012Y-43449211D01*
X72759140Y-43615130D01*
X72759139Y-43615132D01*
X72570734Y-43810549D01*
X72570732Y-43810551D01*
X72412778Y-44031329D01*
X72288656Y-44272746D01*
X72288649Y-44272762D01*
X72201005Y-44529666D01*
X72201001Y-44529684D01*
X72151693Y-44796631D01*
X72151693Y-44796633D01*
X72141779Y-45067909D01*
X69200500Y-45067909D01*
X69200500Y-45000000D01*
X69218646Y-44584376D01*
X69219115Y-44579027D01*
X69273062Y-44169250D01*
X69274000Y-44163938D01*
X69363454Y-43760437D01*
X69364848Y-43755230D01*
X69489132Y-43361052D01*
X69490981Y-43355973D01*
X69529395Y-43263233D01*
X69649151Y-42974117D01*
X69651414Y-42969265D01*
X69842278Y-42602618D01*
X69844951Y-42597989D01*
X70067036Y-42249386D01*
X70070115Y-42244988D01*
X70321735Y-41917070D01*
X70325194Y-41912949D01*
X70604433Y-41608213D01*
X70608213Y-41604433D01*
X70912949Y-41325194D01*
X70917070Y-41321735D01*
X71244988Y-41070115D01*
X71249386Y-41067036D01*
X71597989Y-40844951D01*
X71602618Y-40842278D01*
X71969265Y-40651414D01*
X71974117Y-40649151D01*
X72355973Y-40490981D01*
X72361052Y-40489132D01*
X72755230Y-40364848D01*
X72760437Y-40363454D01*
X73163938Y-40274000D01*
X73169250Y-40273062D01*
X73579027Y-40219115D01*
X73584376Y-40218646D01*
X74000000Y-40200500D01*
X74039882Y-40200500D01*
X153960118Y-40200500D01*
X154000000Y-40200500D01*
X154415621Y-40218646D01*
G37*
%TD.AperFunction*%
%TD*%
M02*
